<svg xmlns="http://www.w3.org/2000/svg" xmlns:xlink="http://www.w3.org/1999/xlink" width="181.442" height="177.318" viewBox="0 0 181.442 177.318">
  <defs>
    <clipPath id="clip-path">
      <rect id="Rectangle_12" data-name="Rectangle 12" width="59.593" height="66.125" fill="#fff"/>
    </clipPath>
  </defs>
  <g id="Group_4099" data-name="Group 4099" transform="translate(-1339 -3014)">
    <g id="Group_4073" data-name="Group 4073" transform="translate(1339 3014)">
      <rect id="Shape_16" data-name="Shape 16" width="126.025" height="126.025" rx="63.012" transform="translate(153.591 152.404) rotate(180)" fill="#0b577e"/>
      <path id="download_2_" data-name="download (2)" d="M180.851,66.553c-3.831-34.058-28.679-53.2-56.027-59.479C99.866-3.233,71.481-2.74,47.859,11.623A100.357,100.357,0,0,0,17.283,41.2,85.873,85.873,0,0,0,5.6,62.245,67.382,67.382,0,0,0,.743,84.321,86.831,86.831,0,0,0,2.8,117.535a114.782,114.782,0,0,0,12.643,29.526c1.072,1.8,3.551.085,2.542-1.777a122.2,122.2,0,0,1-10.867-26.9c.609,1.311,1.248,2.6,1.939,3.852A67.36,67.36,0,0,0,35.3,148.053c22.175,26.819,59.715,37.461,89.345,22.35C159.071,152.838,185.8,110.477,180.851,66.553ZM99.372,4.833A123.437,123.437,0,0,0,47.11,19.122c-3.866,2.032-7.771,4.261-11.582,6.71a80.012,80.012,0,0,1,63.845-21ZM4.71,91.941a73.669,73.669,0,0,1,.274-10.066,91.857,91.857,0,0,1,6.652-22.9c4.223-8.333,8.275-15.69,15.41-21.475a127.355,127.355,0,0,1,49.37-24.881A111.051,111.051,0,0,1,122.372,10.8c.65.274,1.3.521,1.944.8,15.133,6.523,30.162,16.518,38.6,32.679,9.794,18.733,7.7,42.528-.872,61.281-16.194,35.44-51.859,52.315-85.934,50.019A90.85,90.85,0,0,1,36.5,143.5,64.135,64.135,0,0,1,21.651,101.73c.228-22.808,9.183-42.432,22.18-59.211A179.159,179.159,0,0,1,62.279,22.229a1.432,1.432,0,0,0-1.95-2.092C45.092,34.45,30.241,51.856,23.362,73.282c-6.671,20.8-6.9,44.226,3.943,63.222.214.376.447.738.666,1.1A60.162,60.162,0,0,1,4.71,91.941Zm142.112,57.28c-13.356,13.329-30.453,23.617-48.5,24.59-18.13.973-36.526-7.154-50.944-19.276-.548-.463-1.083-.949-1.621-1.423q1.625.662,3.255,1.261c34.275,12.5,75.929,5.4,101.9-24.234s32.183-79.965,0-107.163c-1.541-1.313-3.137-2.567-4.757-3.781a60.6,60.6,0,0,1,23.691,24.047C188.951,78.283,171.676,124.415,146.823,149.222Z" transform="translate(181.442 177.318) rotate(180)" fill="#0e9cd9"/>
    </g>
    <g id="Group_4075" data-name="Group 4075" transform="translate(1400 3069.597)">
      <g id="Group_4074" data-name="Group 4074" clip-path="url(#clip-path)">
        <path id="Path_2300" data-name="Path 2300" d="M6.814,66.125H5.264a1.2,1.2,0,0,0-.237-.093,5.321,5.321,0,0,1-4-2.945,10.4,10.4,0,0,1-1.027-5Q0,33.061.021,8.04A14.439,14.439,0,0,1,.5,4.412,5.56,5.56,0,0,1,6.506.019a10.74,10.74,0,0,1,4.533,1.567Q32.945,14.151,54.844,26.731A14.342,14.342,0,0,1,57.716,28.9a5.53,5.53,0,0,1,.38,7.938,11.522,11.522,0,0,1-3.324,2.624L13.25,63.268c-2.048,1.174-4.038,2.475-6.436,2.857" transform="translate(0 0)" fill="#fff"/>
      </g>
    </g>
  </g>
</svg>
