<svg id="Group_4081" data-name="Group 4081" xmlns="http://www.w3.org/2000/svg" xmlns:xlink="http://www.w3.org/1999/xlink" width="77.346" height="77.333" viewBox="0 0 77.346 77.333">
  <defs>
    <clipPath id="clip-path">
      <rect id="Rectangle_14" data-name="Rectangle 14" width="77.346" height="77.333" fill="#fff"/>
    </clipPath>
  </defs>
  <g id="Group_4080" data-name="Group 4080" clip-path="url(#clip-path)">
    <path id="Path_2307" data-name="Path 2307" d="M38.674,77.329q-11.64,0-23.28,0A15.228,15.228,0,0,1,.015,62.009Q-.007,38.69.008,15.371A15.162,15.162,0,0,1,15.348.011q23.322-.022,46.645,0A15.16,15.16,0,0,1,77.336,15.367q.022,23.277,0,46.553A15.177,15.177,0,0,1,61.955,77.327q-11.64.02-23.281,0M56.683,32.941A19.837,19.837,0,0,0,54.1,23.4c-3.718-6.55-11.043-10.225-17.994-9.027a18.816,18.816,0,0,0-15.438,17.67,19.066,19.066,0,0,0,2.184,9.205c3.821,7.978,9.244,14.85,14.97,21.506.578.672,1.153.633,1.77-.082,1.171-1.356,2.34-2.716,3.462-4.113a92.137,92.137,0,0,0,10.9-16.2c1.488-2.963,2.743-6.011,2.725-9.417" transform="translate(0 0)" fill="#fff"/>
    <path id="Path_2308" data-name="Path 2308" d="M145.867,121.835a7.645,7.645,0,1,1,7.613-7.642,7.62,7.62,0,0,1-7.613,7.642" transform="translate(-107.166 -82.623)" fill="#fff"/>
  </g>
</svg>
