<svg id="Group_4078" data-name="Group 4078" xmlns="http://www.w3.org/2000/svg" xmlns:xlink="http://www.w3.org/1999/xlink" width="40.332" height="40.333" viewBox="0 0 40.332 40.333">
  <defs>
    <clipPath id="clip-path">
      <rect id="Rectangle_7" data-name="Rectangle 7" width="40.332" height="40.333" fill="none"/>
    </clipPath>
  </defs>
  <g id="Group_4045" data-name="Group 4045" clip-path="url(#clip-path)">
    <path id="Path_2297" data-name="Path 2297" d="M84.994,70.976A12.576,12.576,0,1,1,79.74,94.985a1.189,1.189,0,0,0-.7-.072c-1.9.433-3.8.89-5.695,1.34-.7.166-.972-.09-.827-.8.4-1.95.807-3.9,1.2-5.847a1.094,1.094,0,0,0-.069-.633,12.543,12.543,0,0,1,8.9-17.679c.807-.157,1.633-.212,2.451-.314M75.926,92.737c.169-.026.27-.035.369-.058.956-.222,1.918-.423,2.865-.682a1.448,1.448,0,0,1,1.151.136,9.752,9.752,0,1,0-4.941-6.906A9.868,9.868,0,0,0,76.494,88.4a1.335,1.335,0,0,1,.126,1.007c-.237,1.085-.455,2.175-.694,3.333" transform="translate(-64.804 -63.502)" fill="#fff"/>
    <path id="Path_2298" data-name="Path 2298" d="M99.693,116.852c.24-1.158.457-2.248.694-3.333a1.334,1.334,0,0,0-.126-1.007,9.868,9.868,0,0,1-1.125-3.168,9.741,9.741,0,1,1,4.941,6.906,1.448,1.448,0,0,0-1.151-.136c-.946.259-1.909.459-2.865.681-.1.023-.2.032-.368.058m12.327-3a11.609,11.609,0,0,0,1.2-.2,3.732,3.732,0,0,0,2.052-1.742.969.969,0,0,0-.585-1.592,15.058,15.058,0,0,1-1.546-.443,1.653,1.653,0,0,0-2.181.541.8.8,0,0,1-1.191.2,12.714,12.714,0,0,1-3.842-3.385.854.854,0,0,1,.022-1.218c.141-.189.29-.373.431-.563a.953.953,0,0,0,.115-1c-.324-.745-.644-1.492-.989-2.227a.918.918,0,0,0-1.526-.323,7.35,7.35,0,0,0-.825.841,2.98,2.98,0,0,0-.739,2.1,5.824,5.824,0,0,0,.847,2.83,14.759,14.759,0,0,0,5.051,4.981,7.54,7.54,0,0,0,3.711,1.2" transform="translate(-88.571 -87.617)" fill="#29a71a"/>
    <path id="Path_2299" data-name="Path 2299" d="M141.035,145.231a7.54,7.54,0,0,1-3.711-1.2,14.759,14.759,0,0,1-5.051-4.981,5.824,5.824,0,0,1-.847-2.83,2.98,2.98,0,0,1,.739-2.1,7.351,7.351,0,0,1,.825-.841.918.918,0,0,1,1.526.323c.345.735.665,1.482.989,2.227a.953.953,0,0,1-.115,1c-.14.19-.289.373-.431.563a.854.854,0,0,0-.022,1.218A12.714,12.714,0,0,0,138.781,142a.8.8,0,0,0,1.191-.2,1.653,1.653,0,0,1,2.181-.54,15.058,15.058,0,0,0,1.546.443.969.969,0,0,1,.585,1.592,3.732,3.732,0,0,1-2.052,1.742,11.612,11.612,0,0,1-1.2.2" transform="translate(-117.586 -118.994)" fill="#fff"/>
  </g>
</svg>
