<svg id="Group_4077" data-name="Group 4077" xmlns="http://www.w3.org/2000/svg" xmlns:xlink="http://www.w3.org/1999/xlink" width="91.643" height="84.392" viewBox="0 0 91.643 84.392">
  <defs>
    <clipPath id="clip-path">
      <rect id="Rectangle_13" data-name="Rectangle 13" width="91.643" height="84.392" fill="#fff"/>
    </clipPath>
  </defs>
  <g id="Group_4076" data-name="Group 4076" clip-path="url(#clip-path)">
    <path id="Path_2301" data-name="Path 2301" d="M14.936,94.549c.033-3.632-1.67-6.421-4.093-8.923-2.6-2.681-5.082-5.466-7.639-8.185A11.317,11.317,0,0,1,0,69.325C.038,57.85.012,46.375.018,34.9c0-3.311,1.767-5.627,4.684-6.195a5.711,5.711,0,0,1,6.847,5.576c.058,6.878.025,13.757,0,20.636a1.2,1.2,0,0,1-.485.848A7.882,7.882,0,0,0,9.691,68.31c2.651,2.67,5.336,5.307,8.011,7.953.818.81,1.711.886,2.347.225s.551-1.5-.3-2.341q-3.8-3.786-7.618-7.561c-2.016-2-2.515-4.139-1.46-6.245a6.4,6.4,0,0,1,6.292-3.2A6.61,6.61,0,0,1,20.8,59.031c5.168,5.126,10.384,10.205,15.475,15.407,2.213,2.261,2.707,5.181,2.305,8.261-.227,1.742-.445,3.486-.723,5.22a1.077,1.077,0,0,1-.591.744q-11.052,3-22.122,5.929c-.026.007-.06-.012-.2-.043" transform="translate(-0.001 -21.527)" fill="#fff"/>
    <path id="Path_2302" data-name="Path 2302" d="M237.981,94.58l-8.914-2.389c-4.4-1.18-8.8-2.369-13.206-3.527a.952.952,0,0,1-.855-.967c-.207-2.023-.561-4.032-.732-6.056a9.315,9.315,0,0,1,2.786-7.73q7.453-7.4,14.906-14.8a6.379,6.379,0,0,1,8.784-.636,4.94,4.94,0,0,1,.441,7.616c-2.564,2.583-5.162,5.132-7.743,7.7a5.393,5.393,0,0,0-.751.813,1.35,1.35,0,0,0,.147,1.782,1.429,1.429,0,0,0,1.775.3.764.764,0,0,0,.229-.154c3.092-3.1,6.37-6.039,9.221-9.346,3-3.482,1.862-8.89-2.047-11.356-.4-.255-.7-.456-.7-1.043.029-6.847,0-13.695.032-20.542A5.754,5.754,0,0,1,252.7,32.867a8.847,8.847,0,0,1,.2,2.109c.012,11.382-.021,22.763.027,34.145a11.563,11.563,0,0,1-3.3,8.359c-2.4,2.529-4.7,5.149-7.136,7.64-2.576,2.634-4.577,5.5-4.5,9.461" transform="translate(-161.274 -21.455)" fill="#fff"/>
    <path id="Path_2303" data-name="Path 2303" d="M94.286,22.441a22.51,22.51,0,1,1,22.224,22.552A22.5,22.5,0,0,1,94.286,22.441m22.472,16.446a16.394,16.394,0,1,0-16.377-16.452,16.417,16.417,0,0,0,16.377,16.452" transform="translate(-70.978 0)" fill="#fff"/>
    <path id="Path_2304" data-name="Path 2304" d="M79.258,286.93c-.077.858-.59,1.183-1.32,1.377-5.682,1.511-11.357,3.047-17.036,4.57q-4.951,1.328-9.905,2.639c-1.206.319-1.7.029-2.029-1.188q-.57-2.094-1.121-4.194c-.368-1.4-.111-1.859,1.258-2.226q11.463-3.068,22.927-6.131c1.279-.342,2.554-.7,3.835-1.034,1.221-.321,1.741-.039,2.07,1.143.413,1.483.8,2.973,1.195,4.461.055.207.091.42.125.582" transform="translate(-35.906 -211.251)" fill="#fff"/>
    <path id="Path_2305" data-name="Path 2305" d="M227.043,289.465c-.327,1.219-.681,2.557-1.043,3.893-.7,2.575-.74,2.6-3.274,1.925q-12.846-3.437-25.69-6.881c-1.542-.413-1.785-.847-1.37-2.394.35-1.308.693-2.619,1.046-3.927.372-1.377.85-1.66,2.212-1.3q10.348,2.769,20.7,5.543c2.082.558,4.161,1.125,6.244,1.674a1.4,1.4,0,0,1,1.181,1.463" transform="translate(-147.161 -211.266)" fill="#fff"/>
    <path id="Path_2306" data-name="Path 2306" d="M170.47,66.5c-.166,1.78-.589,2.412-1.579,2.383-.964-.027-1.376-.655-1.467-2.072a25.945,25.945,0,0,1-2.816-1.828,1.546,1.546,0,0,1-.241-2.416,1.648,1.648,0,0,1,2.353.34c.708.9,2.822,1.012,3.763.334a1.91,1.91,0,0,0,.809-2.109,1.864,1.864,0,0,0-1.657-1.522c-.487-.062-.984-.044-1.475-.091A4.972,4.972,0,0,1,166.77,49.9a.871.871,0,0,0,.7-.975,1.483,1.483,0,0,1,1.455-1.671,1.521,1.521,0,0,1,1.488,1.653c.01.213,0,.427.181.464a27.3,27.3,0,0,1,2.816,1.958,1.45,1.45,0,0,1,.049,2.272,1.51,1.51,0,0,1-2.2-.283,3.529,3.529,0,0,0-3.684-.537,1.907,1.907,0,0,0-1.027,2.093,1.847,1.847,0,0,0,1.546,1.63,11.906,11.906,0,0,0,1.472.108,4.984,4.984,0,0,1,1.489,9.66l-.584.225" transform="translate(-123.113 -35.576)" fill="#fff"/>
  </g>
</svg>
