<svg xmlns="http://www.w3.org/2000/svg" xmlns:xlink="http://www.w3.org/1999/xlink" width="217.925" height="56.062" viewBox="0 0 217.925 56.062">
  <defs>
    <clipPath id="clip-path">
      <rect id="Rectangle_3" data-name="Rectangle 3" width="217.925" height="56.061" fill="none"/>
    </clipPath>
    <clipPath id="clip-path-2">
      <rect id="Rectangle_4" data-name="Rectangle 4" width="33.884" height="43.673" fill="none"/>
    </clipPath>
  </defs>
  <g id="Group_4044" data-name="Group 4044" transform="translate(0 0.001)">
    <g id="Group_2" data-name="Group 2" transform="translate(0 0)">
      <g id="Group_1" data-name="Group 1" clip-path="url(#clip-path)">
        <path id="Path_1" data-name="Path 1" d="M5.678,53.481H.016V43.436H5.844a3.955,3.955,0,0,1,2.575.678A2.285,2.285,0,0,1,9.2,45.981a2.179,2.179,0,0,1-.346,1.25,3.725,3.725,0,0,1-1.2.994,3.076,3.076,0,0,1,1.439.934,2.378,2.378,0,0,1,.459,1.506,2.941,2.941,0,0,1-.316,1.347,2.381,2.381,0,0,1-.873.972,5.231,5.231,0,0,1-2.681.5M3.133,45.5v1.747H4.865a1.629,1.629,0,0,0,.873-.151.82.82,0,0,0,.3-.723.793.793,0,0,0-.361-.768,2.149,2.149,0,0,0-.813-.105Zm0,3.81v2.108H4.865a2.3,2.3,0,0,0,1.2-.219,1.263,1.263,0,0,0,0-1.672,2.3,2.3,0,0,0-1.2-.218Z" transform="translate(0 0.172)" fill="#0e9cd9"/>
        <path id="Path_2" data-name="Path 2" d="M11.767,55.744V53.726c.311.031.542.045.693.045q.753,0,.753-.33a1.393,1.393,0,0,0-.09-.453l-2.409-7.137h2.982l.723,3.3a10.187,10.187,0,0,1,.241,1.309,9.866,9.866,0,0,1,.09,1.371h.045a16.039,16.039,0,0,1,.331-2.681l.738-3.3H18.83l-2.711,8.072a2.8,2.8,0,0,1-1.039,1.513,3.478,3.478,0,0,1-1.913.444,8.117,8.117,0,0,1-1.4-.136" transform="translate(0.042 0.181)" fill="#0e9cd9"/>
        <path id="Path_3" data-name="Path 3" d="M26.415,53.286H23.3V43.241h5.828A3.563,3.563,0,0,1,31.9,44.25a3.786,3.786,0,0,1-.166,4.849,3.527,3.527,0,0,1-2.605.9H26.415Zm0-7.981V47.94h1.491a2.079,2.079,0,0,0,1.3-.286,1.255,1.255,0,0,0,.437-1.024,1.21,1.21,0,0,0-.512-1.1,2.323,2.323,0,0,0-1.22-.226Z" transform="translate(0.092 0.171)" fill="#0e9cd9"/>
        <path id="Path_4" data-name="Path 4" d="M36.554,53.286H33.648V43.241h2.906V46.69a3.757,3.757,0,0,1,1.1-.927,2.852,2.852,0,0,1,1.28-.263,2.763,2.763,0,0,1,1.973.723,2.7,2.7,0,0,1,.723,2.018v5.045H38.723v-3.72a2.788,2.788,0,0,0-.166-1.235.918.918,0,0,0-.873-.422,1.011,1.011,0,0,0-.994.5,3.116,3.116,0,0,0-.136,1.16Z" transform="translate(0.133 0.171)" fill="#0e9cd9"/>
        <path id="Path_5" data-name="Path 5" d="M43.327,55.744V53.726c.311.031.542.045.693.045q.753,0,.753-.33a1.392,1.392,0,0,0-.09-.453l-2.409-7.137h2.982l.723,3.3a10.186,10.186,0,0,1,.241,1.309,9.867,9.867,0,0,1,.09,1.371h.045a16.038,16.038,0,0,1,.331-2.681l.738-3.3H50.39l-2.711,8.072a2.8,2.8,0,0,1-1.039,1.513,3.478,3.478,0,0,1-1.913.444,8.117,8.117,0,0,1-1.4-.136" transform="translate(0.167 0.181)" fill="#0e9cd9"/>
        <path id="Path_6" data-name="Path 6" d="M50.283,52.072l1.792-1.34a3.3,3.3,0,0,0,2.2.889q.843,0,.843-.512a.326.326,0,0,0-.151-.293,1.9,1.9,0,0,0-.572-.189l-.587-.12a8.126,8.126,0,0,1-2.123-.648,1.889,1.889,0,0,1-.979-1.747,2.268,2.268,0,0,1,.941-1.913,4.155,4.155,0,0,1,2.553-.708,5.443,5.443,0,0,1,3.494,1.175l-1.657,1.385a6.4,6.4,0,0,0-1.054-.6,2.211,2.211,0,0,0-.828-.151q-.723,0-.723.452a.283.283,0,0,0,.158.256,3.417,3.417,0,0,0,.716.226l1.732.437a2.05,2.05,0,0,1,1.792,2.108,2.528,2.528,0,0,1-.964,2.063,3.912,3.912,0,0,1-2.545.783,5.654,5.654,0,0,1-4.036-1.551" transform="translate(0.199 0.18)" fill="#0e9cd9"/>
        <path id="Path_7" data-name="Path 7" d="M61.679,45.154H58.773V43.241h2.906Zm0,8.132H58.773V45.861h2.906Z" transform="translate(0.232 0.171)" fill="#0e9cd9"/>
        <path id="Path_8" data-name="Path 8" d="M67.115,45.491a4.4,4.4,0,0,1,3.178,1.114,3.954,3.954,0,0,1,1.175,3.012,3.776,3.776,0,0,1-1.2,2.906,5.077,5.077,0,0,1-6.31,0,4.315,4.315,0,0,1,0-5.918,4.472,4.472,0,0,1,3.162-1.114m.015,6.129a1.216,1.216,0,0,0,1.054-.535,2.569,2.569,0,0,0,.376-1.5,2.745,2.745,0,0,0-.369-1.551,1.22,1.22,0,0,0-1.076-.542,1.207,1.207,0,0,0-1.062.542,2.682,2.682,0,0,0-.368,1.521,2.64,2.64,0,0,0,.376,1.521,1.225,1.225,0,0,0,1.069.542" transform="translate(0.248 0.18)" fill="#0e9cd9"/>
        <path id="Path_9" data-name="Path 9" d="M83.492,49.582l2.65,1.3a5.69,5.69,0,0,1-1.25,1.566,5.246,5.246,0,0,1-3.494,1.19,5.441,5.441,0,0,1-3.629-1.2,5.1,5.1,0,0,1-1.747-4.051,5.453,5.453,0,0,1,1.551-4.006,5.2,5.2,0,0,1,3.84-1.476,5.274,5.274,0,0,1,2.7.648,6.172,6.172,0,0,1,2.025,2.108l-2.65,1.3a3.972,3.972,0,0,0-.972-1.243,1.927,1.927,0,0,0-1.182-.353,1.85,1.85,0,0,0-1.581.783,3.614,3.614,0,0,0-.572,2.169,3.358,3.358,0,0,0,.594,2.116,1.98,1.98,0,0,0,1.649.76,1.912,1.912,0,0,0,1.2-.361,3.189,3.189,0,0,0,.858-1.235" transform="translate(0.301 0.169)" fill="#0e9cd9"/>
        <path id="Path_10" data-name="Path 10" d="M91.07,45.491a4.4,4.4,0,0,1,3.178,1.114,3.954,3.954,0,0,1,1.175,3.012,3.776,3.776,0,0,1-1.2,2.906,5.077,5.077,0,0,1-6.31,0,4.315,4.315,0,0,1,0-5.918,4.472,4.472,0,0,1,3.162-1.114m.015,6.129a1.216,1.216,0,0,0,1.054-.535,2.569,2.569,0,0,0,.376-1.5,2.745,2.745,0,0,0-.369-1.551,1.22,1.22,0,0,0-1.076-.542,1.207,1.207,0,0,0-1.062.542,2.682,2.682,0,0,0-.368,1.521,2.64,2.64,0,0,0,.376,1.521,1.225,1.225,0,0,0,1.069.542" transform="translate(0.343 0.18)" fill="#0e9cd9"/>
        <path id="Path_11" data-name="Path 11" d="M99.388,53.276H96.482V45.852h2.906V46.7a3.58,3.58,0,0,1,1.107-.858,3.073,3.073,0,0,1,1.272-.241,2.8,2.8,0,0,1,1.973.693,2.534,2.534,0,0,1,.723,1.943v5.045h-2.906v-3.72a2.788,2.788,0,0,0-.166-1.235.918.918,0,0,0-.873-.422,1.011,1.011,0,0,0-.994.5,3.117,3.117,0,0,0-.136,1.16Z" transform="translate(0.382 0.18)" fill="#0e9cd9"/>
        <path id="Path_12" data-name="Path 12" d="M108.734,53.276h-2.906V45.852h2.906V46.7a3.58,3.58,0,0,1,1.107-.858,3.072,3.072,0,0,1,1.272-.241,2.8,2.8,0,0,1,1.973.693,2.534,2.534,0,0,1,.723,1.943v5.045H110.9v-3.72a2.788,2.788,0,0,0-.166-1.235.918.918,0,0,0-.873-.422,1.011,1.011,0,0,0-.994.5,3.116,3.116,0,0,0-.136,1.16Z" transform="translate(0.419 0.18)" fill="#0e9cd9"/>
        <path id="Path_13" data-name="Path 13" d="M120.55,50.566l2.424.949a4.259,4.259,0,0,1-1.618,1.573,4.568,4.568,0,0,1-2.236.55,4.3,4.3,0,0,1-3.087-1.1,3.868,3.868,0,0,1-1.16-2.922A4.031,4.031,0,0,1,116,46.635a4.082,4.082,0,0,1,3-1.129,4.305,4.305,0,0,1,2.153.527,3.621,3.621,0,0,1,1.445,1.491,5.306,5.306,0,0,1,.5,2.47v.075h-5.211a1.8,1.8,0,0,0,.361,1.16,1.2,1.2,0,0,0,.964.407q.858,0,1.34-1.069m-2.681-2H120.1a1.738,1.738,0,0,0-.331-.9.917.917,0,0,0-.723-.271q-.949,0-1.175,1.175" transform="translate(0.454 0.18)" fill="#0e9cd9"/>
        <path id="Path_14" data-name="Path 14" d="M129.37,50.19l2.2,1.22a3.845,3.845,0,0,1-3.643,2.214,4.079,4.079,0,0,1-2.982-1.061,3.909,3.909,0,0,1-1.084-2.93,4.1,4.1,0,0,1,1.1-3.012,4,4,0,0,1,2.982-1.129,4.49,4.49,0,0,1,2.146.467,3.945,3.945,0,0,1,1.483,1.491l-2.273,1.3q-.258-1.25-1.191-1.25a1.112,1.112,0,0,0-.994.542,2.829,2.829,0,0,0-.346,1.521q0,1.958,1.25,1.958a1.063,1.063,0,0,0,.776-.286,2.953,2.953,0,0,0,.579-1.039" transform="translate(0.49 0.18)" fill="#0e9cd9"/>
        <path id="Path_15" data-name="Path 15" d="M136.674,51.311l.06,1.9a7.426,7.426,0,0,1-1.959.271,2.262,2.262,0,0,1-2.032-.783,3.814,3.814,0,0,1-.3-1.852V47.561h-1.16V46.055h1.16V43.8h2.906v2.259h1.28v1.506h-1.28v2.711a1.8,1.8,0,0,0,.143.88.629.629,0,0,0,.565.219,2.739,2.739,0,0,0,.617-.06" transform="translate(0.519 0.173)" fill="#0e9cd9"/>
        <path id="Path_16" data-name="Path 16" d="M8.313,32.437H0V5.653H15.219q5.019,0,7.309,2.288a8.672,8.672,0,0,1,2.249,6.225,7.733,7.733,0,0,1-1.325,4.719,9.263,9.263,0,0,1-4.3,2.911l6.3,10.641H16.425L11.2,23.08H8.313Zm0-21.283v6.424h3.815a5.926,5.926,0,0,0,3.413-.722,3.033,3.033,0,0,0,1.083-2.49,2.885,2.885,0,0,0-1.284-2.65,6.465,6.465,0,0,0-3.213-.562Z" transform="translate(0 0.022)" fill="#0e9cd9"/>
        <path id="Path_17" data-name="Path 17" d="M50.484,32.436H28.157V5.653H49.239v5.9H36.47V15.41H48.516v5.9H36.47v5.221H50.484Z" transform="translate(0.111 0.022)" fill="#0e9cd9"/>
        <path id="Path_18" data-name="Path 18" d="M62.027,32.436H53.715V5.653h8.313v8.994h8.713V5.653h8.313V32.436H70.741V22.077H62.027Z" transform="translate(0.212 0.022)" fill="#0e9cd9"/>
        <path id="Path_19" data-name="Path 19" d="M89.987,32.437h-9.2L91.031,5.653h9.517l10.039,26.784h-8.954l-1.084-3.815H91.031Zm5.7-20.48L92.517,22.719h6.3Z" transform="translate(0.32 0.022)" fill="#0e9cd9"/>
        <path id="Path_20" data-name="Path 20" d="M127.368,32.437h-15.1V5.653h15.54q4.739,0,6.867,1.807a6.093,6.093,0,0,1,2.088,4.979,5.8,5.8,0,0,1-.924,3.333,9.931,9.931,0,0,1-3.213,2.65,8.193,8.193,0,0,1,3.835,2.49,6.329,6.329,0,0,1,1.225,4.016,7.844,7.844,0,0,1-.843,3.593,6.346,6.346,0,0,1-2.329,2.59q-2.047,1.325-7.147,1.325m-6.787-21.283v4.658H125.2a4.343,4.343,0,0,0,2.329-.4,2.19,2.19,0,0,0,.8-1.928,2.113,2.113,0,0,0-.964-2.047,5.721,5.721,0,0,0-2.169-.282Zm0,10.16v5.622H125.2a6.144,6.144,0,0,0,3.213-.582,2.539,2.539,0,0,0,.843-2.229,2.539,2.539,0,0,0-.843-2.229,6.133,6.133,0,0,0-3.213-.582Z" transform="translate(0.444 0.022)" fill="#0e9cd9"/>
        <rect id="Rectangle_2" data-name="Rectangle 2" width="138.131" height="3.009" transform="translate(0 37.982)" fill="#0b577e"/>
      </g>
    </g>
    <g id="Group_4" data-name="Group 4" transform="translate(135.287 -0.001)">
      <g id="Group_3" data-name="Group 3" clip-path="url(#clip-path-2)">
        <path id="Path_21" data-name="Path 21" d="M148.037,3.581a2.98,2.98,0,1,0,3.434-2.447,2.982,2.982,0,0,0-3.434,2.447" transform="translate(-134.702 0.005)" fill="#03466e"/>
        <path id="Path_22" data-name="Path 22" d="M134.762,1.464c6.4.5,9.164,5.958,10.853,10.385.11.29.212.586.311.887a26.9,26.9,0,0,1,3.085-2.78c-2.373-5-6.752-9.962-14.249-8.492M157.935,42.18C154.145,37.1,153.051,31.62,152.4,25.5a82.845,82.845,0,0,0-1.489-10.123,23.178,23.178,0,0,0-3.381,5.155c1.02,6.957,1.931,14.7,7.7,20.132a23.1,23.1,0,0,0,3.865,3s-.716-.886-1.164-1.484" transform="translate(-134.754 0.006)" fill="#03466e"/>
        <path id="Path_23" data-name="Path 23" d="M168.606,8.493S166.99,6.02,159.96,6.372c-11.251.565-24.252,16.174-16.921,25.207a10.236,10.236,0,0,0,7.14,3.654,27.473,27.473,0,0,1-1.551-4.047c-6.408-3.957-2.512-12.734,3.624-18.619,7.247-6.951,16.353-4.074,16.353-4.074m-14.1,24.156c.216.85.458,1.682.74,2.492,1.77-.213,3.514-.565,5.123-.907a65.407,65.407,0,0,1,6.971-1.07c-2.726-1.762-8.079-.425-12.835-.515" transform="translate(-134.73 0.026)" fill="#4290d4"/>
      </g>
    </g>
    <g id="Group_6" data-name="Group 6" transform="translate(0 0)">
      <g id="Group_5" data-name="Group 5" clip-path="url(#clip-path)">
        <path id="Path_24" data-name="Path 24" d="M177,31.718H170.14V9.62H188v4.87H177V18.3h10.2v4.87H177Z" transform="translate(0.673 0.038)" fill="#0b577e"/>
        <rect id="Rectangle_5" data-name="Rectangle 5" width="6.858" height="22.098" transform="translate(191.121 9.658)" fill="#0b577e"/>
        <path id="Path_25" data-name="Path 25" d="M211.407,31.718h-6.858V15.086h-5.832V9.62h18.422v5.467h-5.732Z" transform="translate(0.786 0.038)" fill="#0b577e"/>
      </g>
    </g>
  </g>
</svg>
