<svg xmlns="http://www.w3.org/2000/svg" width="59.572" height="48" viewBox="0 0 59.572 48">
  <g id="svgexport-9" transform="translate(-30.5 -43.999)">
    <path id="Path_746" data-name="Path 746" d="M53.627,44.235c1.041,1.725,2.051,3.449,3.151,5.292-.505.3-1.011.624-1.516.892-3.983,2.319-7.818,4.787-10.939,8.3A21.006,21.006,0,0,0,39.15,71.29c.416,0,.832-.03,1.248,0a46.535,46.535,0,0,1,7.372.624c5.618,1.308,7.758,5.619,7.372,10.881A10.149,10.149,0,0,1,45.661,92.1c-3.627.178-7.1-.327-9.958-2.824-2.586-2.259-3.746-5.322-4.489-8.562-2.141-9.573.624-17.749,7.1-24.855A51.8,51.8,0,0,1,49.5,46.851c1.338-.832,2.616-1.725,3.954-2.616h.178Z" transform="translate(0 -0.135)" fill="#fff" stroke="#5e97ff"/>
    <path id="Path_747" data-name="Path 747" d="M131.312,44c1.041,1.725,2.051,3.449,3.151,5.292-.505.3-1.011.624-1.516.892-3.983,2.319-7.818,4.787-10.939,8.3a21.006,21.006,0,0,0-5.172,12.576c.416,0,.832-.03,1.248,0a46.536,46.536,0,0,1,7.372.624c5.618,1.308,7.758,5.619,7.372,10.881a10.149,10.149,0,0,1-9.483,9.306c-3.627.178-7.1-.327-9.958-2.824-2.586-2.259-3.746-5.322-4.489-8.562-2.14-9.573.624-17.749,7.1-24.855a51.8,51.8,0,0,1,11.177-9.009c1.338-.832,2.616-1.725,3.954-2.616Z" transform="translate(-44.392)" fill="#fff" stroke="#5e97ff"/>
  </g>
</svg>
