<svg id="Group_4101" data-name="Group 4101" xmlns="http://www.w3.org/2000/svg" xmlns:xlink="http://www.w3.org/1999/xlink" width="40.075" height="37" viewBox="0 0 40.075 37">
  <defs>
    <clipPath id="clip-path">
      <rect id="Rectangle_3064" data-name="Rectangle 3064" width="40.075" height="37" fill="#fff"/>
    </clipPath>
  </defs>
  <g id="Group_4100" data-name="Group 4100" clip-path="url(#clip-path)">
    <path id="Path_2309" data-name="Path 2309" d="M32.574,118.969h.935A3.664,3.664,0,0,1,32.2,115.52a3.534,3.534,0,0,1,1.366-2.3,3.594,3.594,0,0,1,4.764.344,3.714,3.714,0,0,1-.33,5.42c.349,0,.647,0,.945,0a1.034,1.034,0,0,1,1.132,1.137c0,.438,0,.877,0,1.315a1.009,1.009,0,0,1-1.041,1.052c-.569.009-1.139,0-1.748,0v.362q0,4.044,0,8.089c0,.467-.1.563-.572.563-.381,0-.762,0-1.143,0-.411,0-.522-.115-.522-.53q0-4.044,0-8.089v-.367H21.694v.37q0,3.258,0,6.517a1.941,1.941,0,0,1-3.86.411,4.158,4.158,0,0,1-.017-.428q0-3.244,0-6.488v-.386h-.952v.352c0,2.22,0,4.44,0,6.66a1.933,1.933,0,0,1-2.362,1.932,1.956,1.956,0,0,1-1.517-1.934q-.006-3.33,0-6.66v-.354H5.036v.342q0,4,0,8c0,.574-.072.648-.634.648-.362,0-.724,0-1.086,0-.387,0-.507-.122-.507-.516q0-4.059,0-8.117v-.378H1.536c-.191,0-.382.007-.571-.006a1,1,0,0,1-.955-.99q-.018-.757,0-1.515a1.009,1.009,0,0,1,1.013-.993c.486-.01.972,0,1.458,0h.253a5.351,5.351,0,0,1-.214-.955,1.715,1.715,0,0,1,1.758-1.8q4.13-.005,8.26,0h.441a9.152,9.152,0,0,1,.007-1.016c.074-.641.168-1.282.285-1.917.389-2.125.792-4.248,1.19-6.372.04-.213.081-.425.126-.658a2.14,2.14,0,0,0-.934,1.66c-.165,1.168-.411,2.325-.591,3.491a1.556,1.556,0,0,1-1.8,1.283,1.576,1.576,0,0,1-1.242-1.885q.17-.956.337-1.912c.165-.947.306-1.9.506-2.839a1.945,1.945,0,0,1,.437-.872c1.362-1.49,2.748-2.959,4.132-4.428a1.521,1.521,0,0,1,1.751-.4c1.911.7,3.823,1.4,5.726,2.127a2.053,2.053,0,0,1,.714.5c1.077,1.118,2.131,2.258,3.2,3.381a1.686,1.686,0,0,1,.458,1.677c-.423,1.689-.838,3.381-1.269,5.068a1.545,1.545,0,1,1-3-.743c.327-1.36.671-2.716,1.021-4.07a.485.485,0,0,0-.143-.53c-.348-.345-.677-.71-1.065-1.121l-1.13,7.892h5.971A4.777,4.777,0,0,1,32.54,118.8c.006.046.018.091.034.166m-11.643-4.438c.157-1.083.308-2.128.459-3.173.265-1.838.524-3.676.8-5.511a.627.627,0,0,1,.259-.394c.173-.106.337.015.471.159.565.606,1.122,1.22,1.709,1.8a.774.774,0,0,1,.207.846c-.363,1.39-.7,2.786-1.055,4.179a.805.805,0,0,0,.567,1.067.782.782,0,0,0,.949-.674c.412-1.653.821-3.306,1.243-4.956a.948.948,0,0,0-.247-.967c-1.089-1.146-2.17-2.3-3.26-3.444a1.167,1.167,0,0,0-.415-.289c-1.89-.7-3.785-1.4-5.677-2.1a.85.85,0,0,0-1,.249c-1.357,1.457-2.724,2.9-4.075,4.365a1.166,1.166,0,0,0-.263.55c-.2,1.047-.377,2.1-.56,3.149-.1.553-.2,1.106-.276,1.662a.78.78,0,0,0,.445.822.678.678,0,0,0,.839-.14,1.578,1.578,0,0,0,.3-.687c.249-1.358.47-2.72.71-4.079a.919.919,0,0,1,.178-.438c.538-.6,1.1-1.191,1.644-1.786a.4.4,0,0,1,.5-.145.411.411,0,0,1,.194.513c-.112.55-.213,1.1-.316,1.654-.454,2.433-.9,4.867-1.365,7.3a9.825,9.825,0,0,0-.168,2.15c.579,0,1.139.006,1.7-.007.077,0,.163-.085.225-.149a4.726,4.726,0,0,1,3.6-1.531c.551.005,1.1,0,1.684,0m-.92,7.2H38.79c.476,0,.534-.06.535-.548q0-.429,0-.857c0-.548-.041-.59-.577-.59H1.191c-.343,0-.431.094-.434.446,0,.3,0,.591,0,.886,0,.651.012.663.648.663H20.011m11.781-2.754c-.016-.129-.023-.222-.039-.314a4.025,4.025,0,0,0-3.957-3.379q-4.315-.024-8.631,0a3.856,3.856,0,0,0-3.038,1.4.781.781,0,0,1-.663.3q-5.53-.012-11.06,0a1.421,1.421,0,0,0-.554.093.978.978,0,0,0-.551,1.136,1,1,0,0,0,1.036.766q6.273,0,12.546,0c.089,0,.177-.013.243-.018a3.93,3.93,0,0,1-.06-.7,1.316,1.316,0,0,1,1.4-1.184q4.916,0,9.831,0c.114,0,.229-.007.343,0,.25.015.419.174.4.388a.374.374,0,0,1-.394.369c-.076,0-.152,0-.229,0h-9.8c-.086,0-.172,0-.257,0a.557.557,0,0,0-.537.528.57.57,0,0,0,.484.609,1.648,1.648,0,0,0,.257.009H31.793m1.124-2.89a2.837,2.837,0,1,0,5.674.043,2.837,2.837,0,1,0-5.674-.043M13.741,126.16c0,1.067-.007,2.134.006,3.2a1.758,1.758,0,0,0,.128.692,1.144,1.144,0,0,0,1.35.647,1.207,1.207,0,0,0,.883-1.224c.007-2.248,0-4.5.006-6.745,0-.186-.057-.248-.245-.245-.619.01-1.239.012-1.858,0-.214,0-.277.061-.275.275.01,1.134,0,2.267,0,3.4m4.837-3.654c0,1.063,0,2.091,0,3.119,0,1.3,0,2.59,0,3.886a1.175,1.175,0,1,0,2.348-.007q.007-3.386,0-6.771c0-.072-.013-.145-.021-.226ZM4.258,130.7v-8.195c-.088-.007-.153-.018-.218-.017-.555,0-.476-.059-.477.461q0,3.611,0,7.221c0,.622,0,.622.628.558a.306.306,0,0,0,.068-.029m32.252-8.19h-.691v8.211h.691Z" transform="translate(0 -94.506)" fill="#fff"/>
    <path id="Path_2310" data-name="Path 2310" d="M322.6,7a3.5,3.5,0,1,1,3.515-3.463A3.486,3.486,0,0,1,322.6,7m2.746-3.49a2.712,2.712,0,1,0-2.721,2.73,2.737,2.737,0,0,0,2.721-2.73" transform="translate(-300.91 -0.001)" fill="#fff"/>
  </g>
</svg>
