<svg xmlns="http://www.w3.org/2000/svg" xmlns:xlink="http://www.w3.org/1999/xlink" width="23.764" height="37.689" viewBox="0 0 23.764 37.689">
  <defs>
    <clipPath id="clip-path">
      <rect id="Rectangle_3073" data-name="Rectangle 3073" width="23.764" height="37.689" fill="none" stroke="#fff" stroke-width="1"/>
    </clipPath>
  </defs>
  <g id="Group_4120" data-name="Group 4120" transform="translate(0 0)">
    <g id="Group_4119" data-name="Group 4119" transform="translate(0 0)" clip-path="url(#clip-path)">
      <path id="Path_2342" data-name="Path 2342" d="M23.417,33.1c-.986-2.184-2.1-4.322-2.933-6.562-.967-2.586-2.393-4.412-5.4-4.43-.761,0-.951-.385-.834-1.143a4.98,4.98,0,0,0-1.4-4.49c-.554-.548-.529-.91-.062-1.453a2.284,2.284,0,0,0,.519-2.165c-.272-.9.2-.853.8-.849,1.949.012,3.9.026,5.845-.007A1.715,1.715,0,0,0,21.8,10.232,1.768,1.768,0,0,0,20.122,8.28a7.085,7.085,0,0,0-1.085-.037c-2.945,0-5.891,0-8.836-.006-.318,0-.634-.067-1.19-.13a4.274,4.274,0,0,0,2.78-2.927A4.159,4.159,0,0,0,8.986.245a3.816,3.816,0,0,0-4.98,2.347C2.391,6.4,2.405,10.446,2.555,14.484A1.612,1.612,0,0,0,3.8,15.96c.727.2.739.593.642,1.211a29.337,29.337,0,0,0-.479,5.807,1.8,1.8,0,0,1-.9,1.761A6.788,6.788,0,0,0,1.4,34.519a8.311,8.311,0,0,0,9.523,2.636c3.395-1.228,5.067-3.972,4.885-8.013l-.785-2.061a2.512,2.512,0,0,1,1.1,1.737c.995,2.129,1.964,4.269,2.993,6.382a2.4,2.4,0,0,0,3.34,1.379c1.292-.62,1.66-1.937.963-3.478M19.291,9.143c.772,0,1.693-.059,1.646,1.071-.042,1-.885.961-1.625.96q-2.641-.006-5.28,0c-1.9,0-3.793-.064-5.685.024-1.147.053-1.075-.744-1.153-1.4-.113-.95.676-.642,1.13-.646,3.656-.023,7.311-.017,10.967-.009M9.964,1.925c.5.02.7.652.885,1.1a6.42,6.42,0,0,1,.272.977A3.374,3.374,0,0,1,8.56,7.292c-.394.075-.881.217-1.166-.081-.313-.326.007-.766.153-1.109a6.409,6.409,0,0,1,.719-1.13A8.364,8.364,0,0,0,9.4,3c.136-.378,0-1.092.564-1.07M3.239,13.534q-.033-.473-.039-.948c-.006-.542,0-1.083,0-1.625A27.221,27.221,0,0,1,4.315,3.62C4.993,1.717,6.291.636,7.79.729c1.029.063,1.54.473,1.076,1.552A6.537,6.537,0,0,1,8,4.1C6,6.33,6.177,8.871,6.788,11.5c.122.528.309,1.045.381,1.578a1.942,1.942,0,0,1-1.706,2.442c-1.445.13-2.123-.473-2.224-1.988M7.947,36.819C3.755,36.817.634,33.781.9,29.91a6.045,6.045,0,0,1,2.892-4.678.79.79,0,0,1,.87-.1,22.816,22.816,0,0,0,7.808,1.535A2.272,2.272,0,0,1,14.68,28.44c1.445,4.194-1.914,8.38-6.733,8.379m14.077-.969c-.919.408-1.707-.034-2.285-1.291-1.112-2.422-2.253-4.832-3.311-7.279a1.768,1.768,0,0,0-1.716-1.2,53.406,53.406,0,0,1-8.577-1.256,1.526,1.526,0,0,1-1.369-1.681c.03-2.085.294-4.149.519-6.217.066-.606.494-.653.917-.819a2.4,2.4,0,0,0,1.684-2.772c-.286-1.361.275-1.442,1.286-1.327a7.267,7.267,0,0,0,.815,0,1.159,1.159,0,0,1,.271,0c.72.173,1.679-.475,2.126.636a2.063,2.063,0,0,1-.73,2.422c-.68.625-.44.985.121,1.51,1.5,1.4,2.225,3.066,1.441,5.121-.25.656.022.9.634,1.01.976.183,1.935.475,2.916.6a2.254,2.254,0,0,1,1.929,1.463c1.273,2.845,2.6,5.669,3.889,8.505.574,1.259.366,2.154-.56,2.564" transform="translate(0 0)" fill="#fff" stroke="#fff" stroke-width="1"/>
    </g>
  </g>
</svg>
