<svg xmlns="http://www.w3.org/2000/svg" xmlns:xlink="http://www.w3.org/1999/xlink" width="34.893" height="34.515" viewBox="0 0 34.893 34.515">
  <defs>
    <clipPath id="clip-path">
      <rect id="Rectangle_3074" data-name="Rectangle 3074" width="34.893" height="34.515" fill="none"/>
    </clipPath>
  </defs>
  <g id="Group_4122" data-name="Group 4122" transform="translate(0 0)">
    <g id="Group_4121" data-name="Group 4121" transform="translate(0 0)" clip-path="url(#clip-path)">
      <path id="Path_2343" data-name="Path 2343" d="M4.679,32.011C2.32,32.443.643,31.518.1,29.511a3.539,3.539,0,0,1,2.33-4.144c1.974-.648,3.525.35,4.6,2.945h3.784c.017-.305.044-.569.045-.833q0-7.841,0-15.68c0-2.977.536-4.063,2.943-5.832a3.746,3.746,0,0,1-.951-2.978A3.419,3.419,0,0,1,14.034.854,3.463,3.463,0,0,1,18.424.72c1.537,1.22,1.727,2.96.521,5.137,1.684.785,2.267,2.394,2.924,3.957,1.074,2.554,2.174,5.1,3.241,7.654a.988.988,0,0,0,1.1.756,14,14,0,0,1,2.568.08A3.039,3.039,0,0,1,31.4,21.5a2.979,2.979,0,0,1-2.86,2.876c-1.513.063-3.029.056-4.543.033-.544-.008-.772.118-.747.71.046,1.029.013,2.061.013,3.2h.863c2.475,0,4.95,0,7.424,0a3.108,3.108,0,1,1,.014,6.2q-11.779.008-23.56,0a3.2,3.2,0,0,1-3.324-2.5M23.734,18.2c-.215-.519-.38-.933-.555-1.341-1.162-2.707-2.312-5.418-3.494-8.117A2.772,2.772,0,0,0,17.53,7.02c-3.335-.525-5.192,1.734-5.116,4.073.073,2.218.012,4.44.011,6.661v2.771H17a7.6,7.6,0,0,1,.829-1.415,6.943,6.943,0,0,1,1.282-.9c-.58-1.358-1.162-2.725-1.748-4.089-.215-.5-.348-1.009.277-1.287s.919.13,1.135.646c.584,1.391,1.167,2.783,1.779,4.163.1.218.334.515.523.528.847.058,1.7.026,2.661.026M21.712,28.286c0-1.4,0-2.729,0-4.063,0-1.156.2-1.353,1.372-1.354,1.717,0,3.434.015,5.151-.007a1.574,1.574,0,0,0,1.632-1.469,1.614,1.614,0,0,0-1.589-1.6c-.151-.013-.3-.016-.454-.016-2.55,0-5.1,0-7.651,0-1.159,0-1.538.381-1.544,1.546-.009,1.869,0,3.738,0,5.606v1.351Zm-3.044,4.679h12.8a1.663,1.663,0,0,0,1.738-.941c.487-1.124-.311-2.163-1.683-2.166q-6.164-.014-12.327,0a4.5,4.5,0,0,0-.53.063Zm-1.635-3.043a2.936,2.936,0,0,0-.4-.064q-4.316,0-8.634,0a2.534,2.534,0,0,0-.67.1A1.474,1.474,0,0,0,6.24,31.492a1.308,1.308,0,0,0,1.165,1.37c3.2.05,6.393.022,9.627.022Zm-4.565-1.662h4.572V22.14H12.468ZM3.483,30.61a1.918,1.918,0,1,0-1.925-1.9,1.9,1.9,0,0,0,1.925,1.9M18.219,3.441a1.957,1.957,0,0,0-1.947-1.9,1.937,1.937,0,1,0,1.947,1.9" transform="translate(0 0)" fill="#fff"/>
    </g>
  </g>
</svg>
