<svg id="Group_4124" data-name="Group 4124" xmlns="http://www.w3.org/2000/svg" xmlns:xlink="http://www.w3.org/1999/xlink" width="33.889" height="33.748" viewBox="0 0 33.889 33.748">
  <defs>
    <clipPath id="clip-path">
      <rect id="Rectangle_3075" data-name="Rectangle 3075" width="33.888" height="33.748" fill="none"/>
    </clipPath>
  </defs>
  <g id="Group_4123" data-name="Group 4123" transform="translate(0 0)" clip-path="url(#clip-path)">
    <path id="Path_2344" data-name="Path 2344" d="M.815,29.846a3.534,3.534,0,0,1,1.009-2.474c-.822-.481-.789-1.291-.771-2.1.014-.577-.011-1.156.007-1.733.011-.385-.15-.837.366-1.073.063-.03.043-.276.031-.419-.086-.964-.174-1.929-.283-2.89a.727.727,0,0,0-.233-.459,2,2,0,0,1-.787-1.759c.014-1.137,0-2.274,0-3.411a3.106,3.106,0,0,1,3.256-3.337c.146,0,.292-.022.46-.036a1.127,1.127,0,0,0-.371-1.285,3.465,3.465,0,0,1-1.262-2.81c0-.316.007-.634,0-.95a2.21,2.21,0,0,0-.587-1.7A2.016,2.016,0,0,1,1.792.618,2.062,2.062,0,0,1,4.63.518a1.1,1.1,0,0,0,.892.3A4.015,4.015,0,0,1,9.367,2.938a1.449,1.449,0,0,1,.236.677c.036,1,.081,2.01.03,3.01A3.008,3.008,0,0,1,8.457,8.837a1.186,1.186,0,0,0-.362,1.39c.41-.07.814-.171,1.224-.2a2.974,2.974,0,0,1,1.286.042c1.459.613,2.887,1.3,4.316,1.983a1.414,1.414,0,0,1,.713,1.971c-.231.529-.48,1.051-.731,1.571a1.927,1.927,0,0,0-.241,1.525,1.573,1.573,0,0,1-.913,1.693,1.865,1.865,0,0,0-.6.575,4.079,4.079,0,0,0-.337.7c-.57,1.236-.814,1.382-2.212,1.278-.1.74-.2,1.486-.3,2.231l.1.142A2.023,2.023,0,0,1,12.292,23a2.416,2.416,0,0,0,.066-.254,1.68,1.68,0,0,1,1.993-1.683,9.942,9.942,0,0,0,6.071-1.749,17.566,17.566,0,0,0,1.771-1.446,3.446,3.446,0,0,1,2.308-.986c.2,0,.446-.259.58-.459.063-.092-.046-.372-.155-.5a5.083,5.083,0,0,1-1.182-2.314,1,1,0,0,0-.334-.527,1.391,1.391,0,0,1-.553-1.478c.145-.693.294-1.386.458-2.074A1.365,1.365,0,0,1,24.9,8.373a.819.819,0,0,0,.487-.231c.528-.463,1.043-.94,1.552-1.423a1.27,1.27,0,0,0,.35-.458,1.309,1.309,0,0,1,2.384-.378.879.879,0,0,0,.473.318,4.685,4.685,0,0,1,3.592,5.821c-.046.2-.014.41-.064.6a3.541,3.541,0,0,1-.3.87c-.252.443-.6.832-.84,1.281a4.608,4.608,0,0,1-4.024,2.6.815.815,0,0,0-.758.428c-.591.972-.6.965-.4,2.259a2.434,2.434,0,0,1,3.095.766.9.9,0,0,0,.666.213,1.822,1.822,0,0,1,1.941.907,1.771,1.771,0,0,1-.371,2.152q-2.618,2.642-5.253,5.267c-.129.129-.251.267-.491.522h.64c1.77,0,3.542.014,5.312-.007.534-.006.739.185.721.718-.028.857-.015,1.715-.006,2.573,0,.4-.162.593-.567.574-.129-.006-.261,0-.391,0H.936c-.936,0-.936,0-.936-.931,0-.689,0-1.38,0-2.069,0-.793,0-.793.815-.9m29.3-8.11c-1-1.315-1.927-1.507-3.039-.364-1.546,1.587-3.181,3.087-4.76,4.642a5.448,5.448,0,0,1-4.03,1.608c-4.769-.018-9.538-.007-14.307,0a4.7,4.7,0,0,0-.779.042,1.777,1.777,0,0,0-1.429,2.2c.135.009.282.026.427.026q9.611,0,19.223-.014a1.294,1.294,0,0,0,.809-.363c2.215-2.184,4.406-4.392,6.609-6.587.407-.406.842-.787,1.277-1.189m2.657,8.986H.841V32.9h31.93ZM13.865,15.943c.337-.731.672-1.437.99-2.149.245-.548.146-.825-.394-1.08q-2.048-.964-4.105-1.906c-.544-.25-.814-.149-1.072.4q-1.115,2.376-2.207,4.766a.56.56,0,0,0-.033.451,1.544,1.544,0,0,1-.2,2.2c1.449.67,2.839,1.334,4.254,1.938a.832.832,0,0,0,.728-.3,10.865,10.865,0,0,0,.7-1.435c-.927-.822-1.1-1.352-.707-2.141.372-.755.906-.959,2.053-.745M8.446,11.079l-.116-.166a4.84,4.84,0,0,0-.913.351,2.379,2.379,0,0,1-2.821.05,2.346,2.346,0,0,0-3.484,1.254,18.484,18.484,0,0,0-.171,2.352H2.168c.012-.138.027-.228.03-.319.007-.3.054-.639.423-.556.167.037.34.383.375.609a8.623,8.623,0,0,1,.016,1.257c1.043,0,2.008.016,2.972-.017.139,0,.319-.217.4-.374.451-.92.876-1.85,1.307-2.78.256-.553.506-1.108.76-1.662m8.9,13.164c.427.747.853,1.446,1.23,2.172a.6.6,0,0,0,.774.327A4.472,4.472,0,0,0,21.6,25.57q1.952-1.883,3.9-3.773a4.313,4.313,0,0,0,.646-.767,2.166,2.166,0,0,0-1.615-3.314c.822,1.269.737,1.927-.353,2.925A13.883,13.883,0,0,1,17.813,24.1c-.14.031-.277.085-.467.144M2.063,20.489c.074.583.146,1.08.2,1.578.03.3.134.439.473.473a1.563,1.563,0,0,1,1.32.989,6.817,6.817,0,0,1,.245.815c1.653-.167,3.281-.324,4.906-.511.116-.014.272-.228.3-.369.107-.585.17-1.178.25-1.768.106-.788-.169-1.128-.976-1.2-.129-.011-.26,0-.39,0H2.063m20.994,9.4c.947,0,1.739.009,2.531-.009a.637.637,0,0,0,.378-.2q3.106-3.091,6.2-6.2a.955.955,0,0,0,.041-1.359c-.421-.457-1.018-.417-1.56.123q-3.593,3.59-7.18,7.185c-.1.1-.195.217-.405.453M8.84,5.4a5.926,5.926,0,0,1-3.6-.86L3.054,5.59A2.961,2.961,0,0,0,4.408,8.558a2.749,2.749,0,0,0,3.11,0A2.992,2.992,0,0,0,8.84,5.4m9.012,21.37c-.444-.788-.821-1.491-1.24-2.167a.66.66,0,0,0-.489-.223c-.667-.011-1.338.058-2,.018a1.9,1.9,0,0,1-1.035-.331,1.57,1.57,0,0,0-1.475-.208.99.99,0,0,0-.608.675,20.1,20.1,0,0,0-.03,2.236Zm2.831-6.617c-.123.059-.207.092-.283.138a10.993,10.993,0,0,1-6.144,1.562c-.661-.023-1.075.309-1.093.843a.886.886,0,0,0,1.043.9,26.977,26.977,0,0,0,3.441-.3,10.346,10.346,0,0,0,4.016-1.731c-.342-.494-.655-.948-.979-1.416m8.575-9.987c-1.546-.334-3.027-.672-4.519-.952a.755.755,0,0,0-.606.407,15.473,15.473,0,0,0-.485,2.229.714.714,0,0,0,.355.592c1.488.372,2.99.691,4.53,1.035.246-1.126.479-2.189.725-3.313M24.6,13.443a3.783,3.783,0,0,0,7.369.405l-.778-.171c-.606.934-.826,1.024-1.915.788-1.539-.334-3.078-.672-4.675-1.022M3.017,4.5A1.281,1.281,0,0,0,4.45,3.825c.321-.576.427-.6.963-.172a4.8,4.8,0,0,0,3.421.908,2.465,2.465,0,0,0-1.4-2.5,2.884,2.884,0,0,0-3.314.046,2.466,2.466,0,0,0-1.1,2.4M10.13,24.567c-1.89.191-3.7.367-5.505.57a.537.537,0,0,0-.382.336,11.082,11.082,0,0,0-.018,1.284H10.13Zm22.829-13a3.724,3.724,0,0,0-3.188-4.544c-.176.757-.355,1.522-.538,2.313L30.4,9.6c1.114.257,1.323.517,1.31,1.67l1.252.293M.98,15.813c0,.492-.012.92,0,1.345A.924.924,0,0,0,2,18.166c1.211.012,2.423.009,3.634,0a.889.889,0,0,0,.974-.723c.011-.453-.355-.731-.986-.735-.932,0-1.864-.01-2.8,0-.415,0-.634-.154-.627-.587a1.481,1.481,0,0,0-.066-.313Zm.859,7.577v2.088c0,1.176.377,1.474,1.59,1.206,0-.709,0-1.43,0-2.152-.006-1.006-.486-1.371-1.589-1.142M22.35,21.159c.6-.538,1.147-.989,1.65-1.481a.8.8,0,0,0,.062-1.162.76.76,0,0,0-1.1-.2c-.563.414-1.07.9-1.62,1.378l1,1.461M29.344,13.6c.831.316.906.277,1.082-.533.13-.6.256-1.2.387-1.792.159-.725.031-.873-.778-.837L29.344,13.6M6.808,19.609c.015-.068.028-.135.043-.2a11.632,11.632,0,0,0-1.762-.414c-.851-.071-1.712,0-2.568-.025-.5-.015-.641.164-.464.641ZM28.432,9.15c.2-.865.415-1.653.553-2.453.032-.183-.192-.411-.3-.618-.2.122-.526.2-.575.369-.243.809-.41,1.641-.613,2.5l.934.2M7.193,9.758H4.758a.73.73,0,0,0,.336.92,1.651,1.651,0,0,0,1.792-.034c.4-.23.368-.554.307-.885M3.965,1.078a1.189,1.189,0,0,0-1.7.213A1.133,1.133,0,0,0,2.3,2.878l1.663-1.8m9.224,17.009a.735.735,0,0,0,.7-.723.725.725,0,0,0-.751-.728c-.46.007-.649.323-.7.721a.719.719,0,0,0,.75.729M31.3,12.852a6.1,6.1,0,0,0,1.067.224.652.652,0,0,0,.476-.318c.042-.079-.142-.38-.279-.435a7.373,7.373,0,0,0-1.08-.259c-.07.3-.122.521-.185.787m-4.168,4.437c-1.263-.57-1.263-.57-1.453-.121l1.013.81c.146-.23.282-.441.439-.689m-.435-8.508c.081-.345.153-.646.224-.947l-.133-.06-.757.827.666.18" transform="translate(0 0)" fill="#fff"/>
    <path id="Path_2345" data-name="Path 2345" d="M6.763,26.327c-1.041,0-2.084.022-3.126-.018-.214-.007-.572-.219-.6-.38-.063-.374.291-.4.58-.4q3.182,0,6.363,0c.3,0,.639.044.574.409-.03.161-.393.364-.611.373-1.059.038-2.121.017-3.181.017" transform="translate(0.7 5.897)" fill="#fff"/>
    <path id="Path_2346" data-name="Path 2346" d="M12.194,26.316a2.034,2.034,0,0,1-.661-.017.611.611,0,0,1-.332-.416c-.015-.094.214-.311.35-.325a5.477,5.477,0,0,1,1.278,0c.162.02.3.25.447.384a1.877,1.877,0,0,1-.473.374,1.886,1.886,0,0,1-.608.015v-.011" transform="translate(2.587 5.895)" fill="#fff"/>
    <path id="Path_2347" data-name="Path 2347" d="M20.884,9.054c-.2.324-.137.918-.687.724-.519-.185-.2-.643-.143-.97.117-.64.24-.7.874-.572a2.822,2.822,0,0,1,.753.18c.176.094.282.319.419.485a2.065,2.065,0,0,1-.581.266,2.112,2.112,0,0,1-.635-.112" transform="translate(4.598 1.89)" fill="#fff"/>
    <path id="Path_2348" data-name="Path 2348" d="M22.3,8.406l.739.657c-.146.134-.294.379-.438.377-.289,0-.7,0-.707-.444,0-.155.207-.313.406-.59" transform="translate(5.059 1.942)" fill="#fff"/>
  </g>
</svg>
