<svg id="Group_4126" data-name="Group 4126" xmlns="http://www.w3.org/2000/svg" xmlns:xlink="http://www.w3.org/1999/xlink" width="33.117" height="36.211" viewBox="0 0 33.117 36.211">
  <defs>
    <clipPath id="clip-path">
      <rect id="Rectangle_3076" data-name="Rectangle 3076" width="33.117" height="36.211" fill="none"/>
    </clipPath>
  </defs>
  <g id="Group_4125" data-name="Group 4125" transform="translate(0 0)" clip-path="url(#clip-path)">
    <path id="Path_2349" data-name="Path 2349" d="M1.907,17.389c.05-.391-.055-.956.594-.943.439.009.474.418.423.774-.059.411.067.994-.558,1.025-.549.028-.461-.46-.459-.855" transform="translate(0.221 1.914)" fill="#fff"/>
    <path id="Path_2350" data-name="Path 2350" d="M2.969,14.945c-.021.4.1.893-.438.9-.68.016-.5-.591-.554-.989s-.009-.835.5-.816c.588.022.441.564.5.9" transform="translate(0.228 1.634)" fill="#fff"/>
    <path id="Path_2351" data-name="Path 2351" d="M2.752,12.759c.036.4-.036.727-.432.7-.694-.04-.527-.66-.626-1.081-.088-.375.021-.762.454-.7.616.089.468.719.6,1.075" transform="translate(0.194 1.359)" fill="#fff"/>
    <path id="Path_2352" data-name="Path 2352" d="M2.188,10.514c.03.406-.159.654-.444.629-.662-.061-.635-.692-.781-1.14-.109-.337.051-.646.451-.588.661.094.495.8.775,1.1" transform="translate(0.108 1.095)" fill="#fff"/>
    <path id="Path_2353" data-name="Path 2353" d="M2.574,19.6c-.145.347.006,1-.668,1-.452,0-.452-.424-.375-.771.088-.4,0-.97.6-1.01.464-.031.493.355.44.779" transform="translate(0.174 2.19)" fill="#fff"/>
    <path id="Path_2354" data-name="Path 2354" d="M2.023,21.776c-.2.323-.067.975-.743.961a.42.42,0,0,1-.411-.568c.154-.394.06-1.035.748-1.019.317.008.455.25.406.626" transform="translate(0.097 2.461)" fill="#fff"/>
    <path id="Path_2355" data-name="Path 2355" d="M16.354,3.63c-.357.04-.707-.05-.711-.481s.339-.525.717-.518c.4.007.806.05.781.555-.022.441-.413.46-.787.444" transform="translate(1.82 0.306)" fill="#fff"/>
    <path id="Path_2356" data-name="Path 2356" d="M19.486,2.628c.378-.021.75.081.759.5.012.516-.424.514-.817.517s-.735-.086-.709-.524c.026-.422.394-.508.767-.49" transform="translate(2.178 0.306)" fill="#fff"/>
    <path id="Path_2357" data-name="Path 2357" d="M13.275,3.627c-.361.018-.712-.027-.717-.484s.351-.509.707-.507c.381,0,.8.019.764.547-.027.457-.407.454-.754.444" transform="translate(1.461 0.307)" fill="#fff"/>
    <path id="Path_2358" data-name="Path 2358" d="M15.207,4.874c0,.336-.175.555-.428.522a.989.989,0,0,1-.919-.823.388.388,0,0,1,.414-.473,1.113,1.113,0,0,1,.932.774" transform="translate(1.612 0.477)" fill="#fff"/>
    <path id="Path_2359" data-name="Path 2359" d="M16.757,6.11c.332.2.778.366.777.9a.367.367,0,0,1-.488.374c-.425-.126-.836-.344-.826-.877,0-.259.2-.422.537-.4" transform="translate(1.887 0.711)" fill="#fff"/>
    <path id="Path_2360" data-name="Path 2360" d="M19.927,8.94c-.051.373-.266.529-.565.455a1.042,1.042,0,0,1-.821-.789.407.407,0,0,1,.5-.472,1.155,1.155,0,0,1,.885.806" transform="translate(2.157 0.945)" fill="#fff"/>
    <path id="Path_2361" data-name="Path 2361" d="M.564,7.649a.975.975,0,0,1,.567.8.425.425,0,0,1-.466.517A.779.779,0,0,1,0,8.289c-.055-.325.358-.429.559-.64" transform="translate(0 0.89)" fill="#fff"/>
    <path id="Path_2362" data-name="Path 2362" d="M13.486,31.639a.431.431,0,0,1-.449-.447.416.416,0,0,1,.438-.452c.315,0,.522.155.5.491a.433.433,0,0,1-.484.407" transform="translate(1.517 3.577)" fill="#fff"/>
    <path id="Path_2363" data-name="Path 2363" d="M32.141,15.821c-.548,0-1.1,0-1.644,0-.261,0-.583.078-.569-.366.04-1.222-.69-1.537-1.731-1.426-.583.061-.752-.14-.739-.725.038-1.712.013-3.426.013-5.139,0-.412.044-.968-.529-.914-.93.088-.877-.444-.85-1.054.02-.444.009-.891,0-1.335a1.764,1.764,0,0,0-2.258-1.916.647.647,0,0,0-.654.738q.012,4.007,0,8.015c0,.527.227.712.735.751,1.5.114,2.141-.474,2.189-1.98.023-.736-.174-1.506.376-2.2v3.946c0,1.785,0,1.805-1.794,1.8-.885,0-1.5.261-1.49,1.248,0,.46-.159.582-.594.57-1.024-.027-2.05-.009-3.083-.009.428-2.312-.334-3.2-2.695-3.2-.856,0-1.717-.055-2.568.016a1.212,1.212,0,0,1-1.384-.879c-.387-.909-.886-1.771-1.342-2.65a2.563,2.563,0,0,0-2.9-1.583A2.623,2.623,0,0,0,6.542,10.3c-.012.94,0,1.881,0,2.822A35.893,35.893,0,0,0,5.11,9.738c-.211-.409-.276-.992.327-1.013,1.533-.051,1.94-.978,1.949-2.286,2.271.872,4.161.182,4.926-1.75A3.427,3.427,0,0,0,10.3.242C8.3-.509,6.643.5,5.613,3.1a3.145,3.145,0,0,0-1.128-.416,1.7,1.7,0,0,0-1.414.466c-.4.457.123.8.311,1.17A6.61,6.61,0,0,1,4.32,7.637c-.01.231.124.578-.311.635-.807.106-.622.525-.313,1a13.668,13.668,0,0,1,2.021,5.639,20.844,20.844,0,0,1-.925,9.113c-.525,1.739-.1,2.319,1.746,2.321.96,0,1.92.027,2.878-.011.5-.021.635.151.623.636q-.047,1.9,0,3.8c.012.508-.094.78-.668.7-.269-.037-.548.008-.821-.008-1.344-.079-2.5.109-2.693,1.784-.018.152-.272.275-.413.414a1.433,1.433,0,1,0,1.9,2.146,1.422,1.422,0,0,0-.023-2.094c-.24-.241-.583-.393-.383-.824a.9.9,0,0,1,.948-.466c1.747,0,3.494,0,5.241,0a.96.96,0,0,1,.972.434c.247.471-.166.637-.423.9a1.446,1.446,0,0,0-.006,2.03,1.412,1.412,0,0,0,2.025-.008,1.385,1.385,0,0,0,0-2.018c-.221-.237-.5-.363-.572-.78a1.768,1.768,0,0,0-1.984-1.522c-2.121-.012-2.137-.032-2.113-2.2.01-.947-.415-2.243.174-2.741.566-.479,1.82-.153,2.772-.166,1.048-.016,2.149.176,2.988-1.05.189,3.149.329,6.022.546,8.89a2.056,2.056,0,1,0,4.107-.169c-.2-3.59-.4-7.18-.681-10.764a4.011,4.011,0,0,0-4.075-3.7c-1.13-.02-2.261,0-3.391,0-1.767,0-1.735,0-1.777-1.763-.017-.746.1-1.061.976-1.053q7.656.074,15.312,0c.863-.008.981.291.978,1.043-.028,5.686-.016,11.372-.016,17.059,0,.239,0,.479,0,.719,0,.348.133.634.517.614.311-.017.455-.27.464-.579.006-.239,0-.479,0-.719q0-8.016,0-16.031c0-2.013,0-2.013,1.961-2.082.1,0,.205,0,.308,0,.3-.017.575-.115.582-.448.009-.4-.294-.488-.635-.487m-6.974-5.309a1.884,1.884,0,0,1-.051.508.609.609,0,0,1-.7.47c-.357-.042-.237-.363-.24-.573-.012-1.061-.006-2.122-.006-3.183s-.01-2.122.008-3.183c0-.229-.171-.6.3-.616a.607.607,0,0,1,.658.522,1.7,1.7,0,0,1,.035.406q0,2.825,0,5.648M9.16,1.014A2.469,2.469,0,0,1,11.612,3.5,2.534,2.534,0,0,1,9.17,5.923,2.466,2.466,0,0,1,6.7,3.457,2.391,2.391,0,0,1,9.16,1.014M4.185,3.74a.765.765,0,0,1,.968.372c.415.852.814,1.715,1.154,2.6a.686.686,0,0,1-.545,1.007c-.673.117-.434-.45-.47-.756A10.144,10.144,0,0,0,4.185,3.74m2.2,31.478a.43.43,0,0,1-.488-.5.412.412,0,0,1,.484-.4c.285.008.416.185.445.455-.031.265-.148.452-.442.453m.1-13.656c.191.366.527.659.406,1.071-.018.063-.472.113-.536.027-.27-.358-.006-.731.129-1.1m9.063,3.726a2.011,2.011,0,0,1-.709.069c-2.839,0-5.679.009-8.518-.007-.317,0-.933.178-.775-.441.117-.458-.044-1.256.87-1.245,1.539.018,3.08,0,4.619,0,1.438,0,2.876-.016,4.312.012.271.006.745-.268.793.322.042.531-.006,1.055-.593,1.285m1.8-9.468c-1.679,0-3.357-.006-5.036,0a1.317,1.317,0,0,1-1.3-.809c-.435-.889-.9-1.765-1.354-2.642-.17-.327-.317-.761-.815-.49-.431.233-.228.579-.06.884.61,1.1,1.071,2.286,1.784,3.337.462.681.186,1.466.2,2.2.04,2.224.015,2.224,2.242,2.224,1.234,0,2.467-.013,3.7.007a3.128,3.128,0,0,1,3.327,3.061c.255,3.414.431,6.834.636,10.253.045.745-.209,1.322-1.034,1.361-.889.042-1.144-.559-1.191-1.336-.192-3.247-.4-6.494-.6-9.741-.073-1.179-.367-1.469-1.591-1.474-2.261-.009-4.521,0-6.782,0-1.4,0-1.93-.519-1.938-1.9-.01-1.747,0-3.494,0-5.241s.016-3.494-.007-5.241a1.6,1.6,0,0,1,1.23-1.774,1.564,1.564,0,0,1,1.908,1c.537,1.1,1.139,2.178,1.66,3.29a1.217,1.217,0,0,0,1.328.833c1.23-.068,2.466-.009,3.7-.022.747-.008,1.321.239,1.349,1.059.029.882-.566,1.169-1.352,1.169m10.977-.24c-.615.012-1.23,0-1.844,0-.547,0-1.094.01-1.64,0-.249-.008-.625.118-.655-.279-.035-.458.372-.3.6-.3,1.194-.017,2.39-.013,3.586,0,.208,0,.54-.116.551.253.013.433-.353.324-.6.329" transform="translate(0.34 0)" fill="#fff"/>
  </g>
</svg>
