<svg id="Group_4104" data-name="Group 4104" xmlns="http://www.w3.org/2000/svg" xmlns:xlink="http://www.w3.org/1999/xlink" width="36.667" height="22.022" viewBox="0 0 36.667 22.022">
  <defs>
    <clipPath id="clip-path">
      <rect id="Rectangle_3065" data-name="Rectangle 3065" width="36.667" height="22.022" fill="none"/>
    </clipPath>
  </defs>
  <g id="Group_4103" data-name="Group 4103" clip-path="url(#clip-path)">
    <path id="Path_2311" data-name="Path 2311" d="M288.686,3.414a3.723,3.723,0,0,1-1.121,2.067c-.342.29-.742.513-1.107.777a2.02,2.02,0,0,0-.492.428c-.355.507-.676,1.037-.971,1.5,1.11,1.929,2.207,3.812,3.278,5.71a1.78,1.78,0,0,1,0,1.787c-1.047,1.913-2.114,3.816-3.184,5.716a1.231,1.231,0,0,1-1.138.623q-1.664.008-3.329,0a.585.585,0,0,1-.658-.723,2.533,2.533,0,0,1,2.372-2.351.459.459,0,0,0,.452-.31q.794-1.779,1.616-3.544a.409.409,0,0,0-.043-.482c-.307-.407-.6-.827-.906-1.263-.441.619-.86,1.207-1.281,1.795-.076.107-.158.21-.24.312a.573.573,0,0,1-.834.181c-.248-.2-.254-.5-.025-.827.5-.71,1-1.427,1.508-2.131a.415.415,0,0,0-.01-.593c-.22-.266-.407-.559-.606-.841a2.131,2.131,0,0,1,.534-3.284,1.207,1.207,0,0,0-1.52-.362c-.452.237-.93.424-1.384.658-.352.181-.647.161-.824-.1a.526.526,0,0,1,.259-.8,12.934,12.934,0,0,1,1.886-.836,1.745,1.745,0,0,0,1.052-.707,4.578,4.578,0,0,1,.3-.381,2.36,2.36,0,0,1-.139-2.925A4.8,4.8,0,0,1,283.7.532a3.256,3.256,0,0,1,4.94,1.93.3.3,0,0,0,.051.093Zm-2.894,14.541c.474-.85.932-1.7,1.418-2.53a1.148,1.148,0,0,0,0-1.273c-.916-1.561-1.814-3.134-2.72-4.7a1.939,1.939,0,0,0-.218-.326,1.007,1.007,0,0,0-1.707.35,1.112,1.112,0,0,0,.213,1.041c.881,1.231,1.742,2.476,2.634,3.7a.915.915,0,0,1,.093,1.08c-.349.685-.645,1.4-.969,2.11l1.076.481c.053.024.108.041.184.07m.043-12.616a3.617,3.617,0,0,1-.369-1.9,1.867,1.867,0,0,0-1.287-1.929,4.422,4.422,0,0,0-1.369,2.243.835.835,0,0,0,.362,1,7.537,7.537,0,0,0,1.389.709,1.656,1.656,0,0,0,1.274-.125m-.576,13.569-1.177-.522c-.1.214-.18.4-.268.58-.457.947-.3,1.065-1.457,1.06a1.227,1.227,0,0,0-1.163.92c.923,0,1.837.007,2.75-.01a.438.438,0,0,0,.292-.21c.343-.585.667-1.181,1.022-1.817m.282-17.794a2.917,2.917,0,0,1,1.005,2.747,3.4,3.4,0,0,0,.182.909,2.246,2.246,0,0,0,.776-2.4,2.127,2.127,0,0,0-1.964-1.255m-.85,5.544-1.561-.583-.5.637,1.425.939.635-.993" transform="translate(-252.02 0)" fill="#fff"/>
    <path id="Path_2312" data-name="Path 2312" d="M5.848,15.975c-.157.138-.288.26-.425.373a2.142,2.142,0,0,1-2.277.383,2.224,2.224,0,0,1-1.425-1.866c-.058-.377-.11-.755-.17-1.131A4.386,4.386,0,0,0,.429,11.575a1.6,1.6,0,0,1-.4-1.36,1.615,1.615,0,0,1,2.391-1.15,13.812,13.812,0,0,1,3.052,2.173,24.17,24.17,0,0,0,4.177,3.239c.85.531,1.687,1.08,2.531,1.619.219.14.386.335.295.589a.7.7,0,0,1-.379.41.8.8,0,0,1-.554-.138c-.852-.527-1.69-1.076-2.533-1.617-.1-.063-.2-.124-.319-.2l-.971,1.307a8.6,8.6,0,0,0,4.722,3.623c.069.019.134.052.2.066a2.436,2.436,0,0,1,1.89,1.648,8.228,8.228,0,0,0,2.713,3.447.8.8,0,0,1,.376.687c-.083,2.755,3.143,3.719,4.985,2.5.656-.433,1.294-.895,1.983-1.373l-1.4-1.505a32.354,32.354,0,0,0-6.656-5.332c-.9-.563-1.777-1.161-2.663-1.746-.323-.213-.413-.48-.267-.753.169-.315.495-.375.859-.139,1,.65,2,1.3,2.989,1.966,1.379.937,2.745,1.9,4.157,2.873a8.613,8.613,0,0,0,2.1-2.619c.346-.665.646-1.354.978-2.027a2.685,2.685,0,0,1,.329-.51.5.5,0,0,1,.675-.124.459.459,0,0,1,.225.642c-.925,1.629-1.493,3.475-2.914,4.8-.209.195-.392.417-.6.639l3.09,3.184c.5-.44,1.011-.895,1.523-1.352.116-.1.219-.22.336-.322a.53.53,0,0,1,.8,0,.518.518,0,0,1-.053.765c-.506.471-1.006.955-1.554,1.374-1.089.834-2.18,1.669-3.321,2.427a4.5,4.5,0,0,1-5.6-.563,3.224,3.224,0,0,1-1.009-2.188.99.99,0,0,0-.4-.78,9.554,9.554,0,0,1-2.755-3.735,1.181,1.181,0,0,0-.877-.791c-.252-.057-.495-.155-.785-.249.146.419.295.788.4,1.168a6.183,6.183,0,0,1-8.923,7.08.767.767,0,0,1-.377-.389.721.721,0,0,1,.143-.543c.168-.208.415-.153.657-.059a9.925,9.925,0,0,0,1.641.58A5.107,5.107,0,0,0,7.322,18.813a4.874,4.874,0,0,0-5.246,2.039,4.93,4.93,0,0,0-.193,5.655c.035.062.079.12.111.183a.529.529,0,0,1-.162.725.523.523,0,0,1-.749-.17,5.8,5.8,0,0,1-1-2.725A6.146,6.146,0,0,1,5.311,17.7,12.885,12.885,0,0,1,7.3,17.682L5.848,15.975M3.563,11.014c-.575-.348-1.131-.694-1.7-1.022a.489.489,0,0,0-.646.131.489.489,0,0,0-.046.655,4.268,4.268,0,0,0,.325.427,4.49,4.49,0,0,1,1.054,2.082,12.809,12.809,0,0,1,.218,1.3A1.212,1.212,0,0,0,5,15.255a3.086,3.086,0,0,1-1.44-4.241m.859.788a1.887,1.887,0,0,0,.8,2.323,16.045,16.045,0,0,1,1.32,1.023,4.53,4.53,0,0,1,.441.484L7.752,14.6,4.421,11.8" transform="translate(0 -8.008)" fill="#fff"/>
  </g>
</svg>
