<svg id="Group_4106" data-name="Group 4106" xmlns="http://www.w3.org/2000/svg" xmlns:xlink="http://www.w3.org/1999/xlink" width="37.667" height="37.676" viewBox="0 0 37.667 37.676">
  <defs>
    <clipPath id="clip-path">
      <rect id="Rectangle_3066" data-name="Rectangle 3066" width="37.667" height="37.675" fill="none"/>
    </clipPath>
  </defs>
  <g id="Group_4105" data-name="Group 4105" clip-path="url(#clip-path)">
    <path id="Path_2313" data-name="Path 2313" d="M77.367,8.2c.026-.286.044-.531.071-.776a2.055,2.055,0,0,1,1.305-1.809,2.017,2.017,0,0,1,2.162.361c.05.041.1.08.1.078.476-.3.934-.565,1.362-.873a.873.873,0,0,0,.232-.459A6.455,6.455,0,0,1,89.334.033a6.619,6.619,0,0,1,5.656,4.082,6.468,6.468,0,0,1-.785,6.779,11,11,0,0,1-4.119,3.369,3.56,3.56,0,0,0-1.765,1.861A14.6,14.6,0,0,1,85.7,20.282a7.8,7.8,0,0,1-8.159,2.262,5.487,5.487,0,0,1-4.093-4.878c-.084-.838-.013-1.691-.013-2.574a5.474,5.474,0,0,1-.792.207,3.326,3.326,0,0,1-2.767-.924,1.97,1.97,0,0,1-.5-2.233,1.893,1.893,0,0,1,1.789-1.3.769.769,0,0,0,.768-.527A4.011,4.011,0,0,1,74.9,7.822a3.816,3.816,0,0,1,2.078.216c.118.045.234.094.39.158m2.111,4.654c-.111.626-.194,1.205-.322,1.774a.591.591,0,0,1-.752.451.612.612,0,0,1-.452-.72c.016-.116.047-.23.068-.346a5.954,5.954,0,0,0-.186-3.395A2.417,2.417,0,0,0,73.6,10a6.83,6.83,0,0,0-.792,1.515c-.212.491-.349.614-.876.578a4.942,4.942,0,0,0-.587-.016.783.783,0,0,0-.806.56.84.84,0,0,0,.347.961,1.792,1.792,0,0,0,2.8-.444,10.071,10.071,0,0,0,.531-1.089c.066-.142.1-.3.165-.44a.625.625,0,1,1,1.174.424c-.035.125-.09.245-.133.368a10.94,10.94,0,0,0-.732,5.147A4.426,4.426,0,0,0,78.064,21.4a6.65,6.65,0,0,0,7.291-2.665,23.292,23.292,0,0,0,1.926-3.355,4.154,4.154,0,0,1,2.054-2.135,10.648,10.648,0,0,0,2.979-2.074,6.02,6.02,0,0,0,2.012-4.2,5.572,5.572,0,0,0-6.474-5.623,5.2,5.2,0,0,0-4.137,4.11.941.941,0,0,1-.766.866,1.726,1.726,0,0,0-.65.346,1.989,1.989,0,0,0,.01,3.078c.1.081.217.145.323.221a.627.627,0,1,1-.658,1.066,3.2,3.2,0,0,1-1.649-3.212c.075-.629-.187-1.044-.7-1.111s-.882.286-.943.912a4.812,4.812,0,0,0,2.115,4.642,4.652,4.652,0,0,0,2.88.853c.492-.01.792.228.8.609.012.4-.289.658-.807.639a9.62,9.62,0,0,1-1.4-.134,6,6,0,0,1-2.793-1.387" transform="translate(-61.973 0)" fill="#fff"/>
    <path id="Path_2314" data-name="Path 2314" d="M273.594,122.143c0,.941.009,1.883-.007,2.824a1.855,1.855,0,0,1-.142.678q-1.408,3.316-2.839,6.623a5.352,5.352,0,0,1-1.632,2.075q-1.949,1.549-3.92,3.07a.58.58,0,0,0-.252.523c.01,1.386,0,2.772,0,4.158,0,.092,0,.183,0,.275a.631.631,0,0,1-.617.634.607.607,0,0,1-.629-.617c-.01-1.7-.019-3.4.015-5.1a1.019,1.019,0,0,1,.415-.614c1.336-1.07,2.688-2.121,4.037-3.174a4.942,4.942,0,0,0,1.563-2.02c.852-2.035,1.738-4.055,2.6-6.086a1.818,1.818,0,0,0,.145-.675c.015-1.726,0-3.452.025-5.178a.507.507,0,0,0-.414-.56,1.085,1.085,0,0,0-1.371.536,5.453,5.453,0,0,0-.494,1.431c-.128.625-.165,1.268-.235,1.9-.048.441-.289.689-.66.661a.637.637,0,0,1-.586-.744,25.472,25.472,0,0,1,.466-2.934,2.632,2.632,0,0,1,2.066-2.127,2.34,2.34,0,0,1,1.92.461,1.285,1.285,0,0,1,.547,1.112c-.013.954,0,1.909,0,2.864" transform="translate(-235.931 -105.327)" fill="#fff"/>
    <path id="Path_2315" data-name="Path 2315" d="M1.251,122.206a9.031,9.031,0,0,0,1.114,5.463c.627,1.275,1.152,2.6,1.7,3.916a4.522,4.522,0,0,0,1.422,1.837c1.354,1.068,2.708,2.138,4.077,3.187a1.152,1.152,0,0,1,.5,1.03c-.023,1.543-.011,3.086-.008,4.629,0,.3-.077.577-.376.661a.749.749,0,0,1-.607-.07.976.976,0,0,1-.261-.645c-.023-1.412-.017-2.824-.006-4.236a.652.652,0,0,0-.279-.59c-1.263-.973-2.514-1.962-3.769-2.945a5.957,5.957,0,0,1-1.867-2.423c-.89-2.118-1.815-4.221-2.712-6.336a2.016,2.016,0,0,1-.157-.753C0,123.075.02,121.218,0,119.361a1.437,1.437,0,0,1,.774-1.348,2.383,2.383,0,0,1,3.136.571,5.361,5.361,0,0,1,.954,2.739c.065.452.1.91.138,1.365a.678.678,0,0,1-.584.824c-.381.029-.6-.223-.665-.7-.112-.84-.21-1.685-.385-2.513a2.9,2.9,0,0,0-.5-1,.976.976,0,0,0-.938-.38c-.521.047-.674.217-.674.736q0,1.275,0,2.55" transform="translate(0 -105.329)" fill="#fff"/>
    <path id="Path_2316" data-name="Path 2316" d="M204.111,184.251a2.009,2.009,0,0,0-2.161-.222,5.436,5.436,0,0,0-1.247.861c-.879.821-1.717,1.685-2.566,2.538a2.618,2.618,0,0,1-1.133.7,5.483,5.483,0,0,0-3.728,3.622,6.7,6.7,0,0,0-.316,2c-.039,2.131-.014,4.264-.015,6.4a3.354,3.354,0,0,1-.006.353.623.623,0,0,1-1.243,0c-.014-.143-.006-.287-.006-.431q0-3.178,0-6.357a7.081,7.081,0,0,1,4.9-6.806,1.7,1.7,0,0,0,.62-.377c.912-.881,1.791-1.8,2.712-2.668a4.351,4.351,0,0,1,2.689-1.312,3.493,3.493,0,0,1,2.885,1.224.6.6,0,0,1-.068.909c-.4.416-.812.815-1.219,1.222q-2.013,2.01-4.026,4.018a2.432,2.432,0,0,1-.32.288.571.571,0,0,1-.784-.071.607.607,0,0,1-.077-.82,1.965,1.965,0,0,1,.29-.317q2.233-2.233,4.469-4.463c.092-.092.2-.165.345-.282" transform="translate(-171.601 -163.405)" fill="#fff"/>
    <path id="Path_2317" data-name="Path 2317" d="M35.934,184.312a2.785,2.785,0,0,1,.39.267q2.24,2.226,4.471,4.46a2.059,2.059,0,0,1,.292.316.585.585,0,0,1-.072.788.577.577,0,0,1-.785.075,1.923,1.923,0,0,1-.29-.262q-2.568-2.563-5.135-5.128c-.5-.5-.492-.773.013-1.239a3.392,3.392,0,0,1,4.287-.467,8.76,8.76,0,0,1,1.439,1.139c.809.761,1.576,1.567,2.371,2.343a1.312,1.312,0,0,0,.49.3,7.056,7.056,0,0,1,5,6.886q0,3.2,0,6.395c0,.1.005.21,0,.314a.624.624,0,0,1-1.247.014c-.011-.117,0-.235,0-.353,0-2.145.005-4.29,0-6.434a5.667,5.667,0,0,0-3.846-5.493,4.036,4.036,0,0,1-1.623-1.072q-1.061-1.075-2.138-2.133a3.884,3.884,0,0,0-1.806-1.127,2.063,2.063,0,0,0-1.8.414" transform="translate(-30.828 -163.435)" fill="#fff"/>
  </g>
</svg>
