<svg id="Group_4108" data-name="Group 4108" xmlns="http://www.w3.org/2000/svg" xmlns:xlink="http://www.w3.org/1999/xlink" width="34.404" height="38.521" viewBox="0 0 34.404 38.521">
  <defs>
    <clipPath id="clip-path">
      <rect id="Rectangle_3067" data-name="Rectangle 3067" width="34.404" height="38.521" fill="none"/>
    </clipPath>
  </defs>
  <g id="Group_4107" data-name="Group 4107" clip-path="url(#clip-path)">
    <path id="Path_2318" data-name="Path 2318" d="M11.686,35.084c0,.911,0,1.781,0,2.651a.69.69,0,1,1-1.373.039c-.011-.874,0-1.747,0-2.655H8.248v1.648c0,.287,0,.573,0,.86,0,.594-.233.891-.688.89s-.685-.3-.687-.892c0-.8,0-1.6-.006-2.407a.517.517,0,0,0-.03-.107H4.808c0,.9.022,1.781-.015,2.663a.862.862,0,0,1-.336.626.8.8,0,0,1-.706-.02.913.913,0,0,1-.3-.647c-.037-.729-.014-1.461-.014-2.191v-.458H.952c-.754,0-.987-.231-.948-.976.223-4.335.335-8.679.711-13a12.112,12.112,0,0,1,5.868-9.423c.155-.1.313-.194.4-.246-.094-.539-.17-1.026-.27-1.507a.946.946,0,0,0-.2-.321,2.993,2.993,0,0,1,4.711-3.692,1.1,1.1,0,0,0,.63.345,3.128,3.128,0,0,1,2.761,4.068c-.1.437-.1.9-.179,1.344-.1.6-.241,1.192-.347,1.79a.465.465,0,0,0,.069.357c.758.761,1.529,1.51,2.3,2.258a.4.4,0,0,0,.66-.18c.137-.466.237-.943.344-1.417a.249.249,0,0,0-.032-.2c-.358-.351-.215-.726-.083-1.116.274-.813.519-1.636.8-2.447a6.427,6.427,0,0,1,4.175-4.188c.081-.028.16-.06.181-.068-.152-.83-.314-1.634-.444-2.444A3.426,3.426,0,0,1,24.9.038a3.34,3.34,0,0,1,3.725,2.9A6.434,6.434,0,0,1,28.8,5.485c-.07.289-.164.573-.257.892.1.033.2.072.3.1a7.582,7.582,0,0,1,5.534,7.386c0,3.3-.054,6.592.022,9.885a2.185,2.185,0,0,1-3.247,2.119c-.049-.024-.1-.041-.213-.086v.488q0,5.609,0,11.218a3.054,3.054,0,0,1-.009.429.641.641,0,0,1-.672.594.648.648,0,0,1-.683-.582,3.2,3.2,0,0,1-.01-.429q0-6.082,0-12.164V24.8H22.691v.5q0,6.146-.007,12.293a1.039,1.039,0,0,1-.176.673.825.825,0,0,1-.679.2c-.2-.054-.369-.312-.49-.517-.07-.118-.023-.308-.023-.465q0-7.285.008-14.571a.728.728,0,0,0-.408-.727,23.665,23.665,0,0,1-1.94-1.419.458.458,0,0,0-.665-.032c-.362.279-.763.507-1.14.767a.745.745,0,0,1-.917.012c-.308-.205-.627-.4-.977-.615a2.945,2.945,0,0,1-.238.644,8.612,8.612,0,0,1-.995,1.311.8.8,0,0,0-.3.638q.012,5.308,0,10.617c0,.766-.206.974-.959.976h-1.1m1.2-20.338a.512.512,0,0,0-.115.031A3.066,3.066,0,0,1,8.336,12.7c-.066-.314-.212-.322-.454-.183a10.919,10.919,0,0,0-5.824,8.968c-.247,3.024-.34,6.061-.5,9.092-.054,1.027-.1,2.054-.145,3.1H12.352V23.424c-.274-.045-.532-.066-.777-.133a1.61,1.61,0,0,1-1.217-1.042.63.63,0,0,1,.325-.833.7.7,0,0,1,.907.232.979.979,0,0,0,.493.339,1.412,1.412,0,0,0,1.665-.891,7.628,7.628,0,0,0,.145-3.848c-.177.185-.288.314-.411.429a2.987,2.987,0,0,1-3.146.683,2.954,2.954,0,0,1-2.069-2.415.689.689,0,1,1,1.349-.278,3.849,3.849,0,0,0,.112.413,1.752,1.752,0,0,0,2.325.931,1.678,1.678,0,0,0,.828-2.265m8.683-.48c.159-.477.3-.926.459-1.367a.685.685,0,1,1,1.3.419c-.209.669-.407,1.344-.674,1.99-.088.212-.376.341-.572.508-.112.1-.265.174-.324.3-.1.2-.114.444-.2.654-.1.234-.018.357.169.5.63.473,1.254.954,1.864,1.452a2.079,2.079,0,0,1-.239,3.451,6.774,6.774,0,0,1-.627.31v.917h6.845v-.377q0-4.212,0-8.423c0-.526.239-.811.668-.822.445-.012.7.285.705.829,0,.4,0,.794,0,1.2h2.032c.485-4.664-1.613-6.971-4.022-7.774a1.363,1.363,0,0,0-.068.153,7.974,7.974,0,0,1-2.921,3.987.741.741,0,0,1-.945.079,6.944,6.944,0,0,1-2.9-3.455c-.068-.185-.131-.372-.2-.573-2.132,1.06-2.544,3.127-3.158,5.114l2.807.936M27.5,4.655c-.062-.408-.135-.976-.238-1.538A1.969,1.969,0,0,0,25.075,1.4,2.058,2.058,0,0,0,23.4,3.729c.061.5.14.992.233,1.484a1.968,1.968,0,0,0,2.115,1.662,2.094,2.094,0,0,0,1.76-2.22M13.287,9.813a1.679,1.679,0,0,0-1.453-2.157,2.668,2.668,0,0,0-.594-.071.936.936,0,0,1-.957-.566,1.57,1.57,0,0,0-1.866-.763A1.6,1.6,0,0,0,7.8,8.973a.841.841,0,0,1,.353.859,1.172,1.172,0,0,0,.466,1.242c.166.16.327.182.472,0A7.915,7.915,0,0,0,10.23,9.547c.294-.657.774-.89,1.391-.366a2.619,2.619,0,0,0,1.666.631m17.664,7.409c0,2.121-.014,4.209.01,6.3a1.236,1.236,0,0,0,.885,1.157c.7.27,1.159-.041,1.16-.789q0-2.942,0-5.884c0-.254,0-.508,0-.78ZM20.529,15.374l-1.716-.568c-.232.952-.449,1.854-.673,2.754a1.069,1.069,0,0,0,.468,1.227c.926.674,1.835,1.372,2.754,2.057a1.945,1.945,0,0,0,.439.264.947.947,0,0,0,1.138-.448c.191-.356.108-.628-.3-.952-.755-.592-1.509-1.187-2.272-1.767a.788.788,0,0,1-.3-.945c.155-.519.3-1.041.469-1.622m-9.2-4.657c-.514.52-1.031,1.024-1.519,1.557a.522.522,0,0,0-.025.447,1.69,1.69,0,0,0,1.669,1.039,1.651,1.651,0,0,0,1.524-1.237,8.263,8.263,0,0,0,.109-1.26l-1.758-.545M23.209,7.649a5.326,5.326,0,0,0,2.209,3.18,6.087,6.087,0,0,0,2.19-3.207.931.931,0,0,0-.224.053,3.221,3.221,0,0,1-3.639.052,1.63,1.63,0,0,0-.536-.078m-7.964,9.239c.044.348.087.63.113.914a4.373,4.373,0,0,1,.048.9.965.965,0,0,0,.6,1.043c.747.426.732.452,1.447-.116a2.514,2.514,0,0,1-.759-1.864c-.7.084-.933-.56-1.455-.876" transform="translate(0 0)" fill="#fff"/>
    <path id="Path_2319" data-name="Path 2319" d="M221.495,239.8c0-1.689-.013-3.379.015-5.068a.918.918,0,0,1,.343-.665.74.74,0,0,1,.7.024,1.071,1.071,0,0,1,.3.734c.023,2.233.013,4.467.013,6.7,0,1.088,0,2.176,0,3.264,0,.552-.247.846-.691.843s-.682-.293-.683-.851q0-2.491,0-4.982" transform="translate(-196.053 -207.118)" fill="#fff"/>
    <path id="Path_2320" data-name="Path 2320" d="M36.56,143.4c-.607-.255-.687-.373-.688-1q0-1.848,0-3.7c0-.558.238-.849.682-.852s.69.29.692.842c0,1.073,0,2.145,0,3.248H40c0-.183,0-.364,0-.545.01-.512.263-.8.7-.794s.671.291.677.814c0,.315-.016.631,0,.945.034.521-.12.9-.691,1.015,0,.549-.012,1.079.008,1.607a.825.825,0,0,0,.166.42c.4.557.824,1.1,1.232,1.653a1.557,1.557,0,0,1-.393,2.382,2.44,2.44,0,0,1-3.375-.521c-.58-.78-1.1-1.6-1.626-2.424a1.134,1.134,0,0,1-.131-.57c-.014-.844-.006-1.689-.006-2.524m1.377-.042c0,.83,0,1.627,0,2.424a.465.465,0,0,0,.083.236c.449.679.891,1.364,1.36,2.03a1.079,1.079,0,0,0,1.449.312c.252-.134.329-.272.126-.53-.468-.6-.934-1.195-1.355-1.823a1.844,1.844,0,0,1-.28-.86c-.042-.591-.013-1.187-.013-1.789Z" transform="translate(-31.752 -122.02)" fill="#fff"/>
  </g>
</svg>
