<svg id="Group_4110" data-name="Group 4110" xmlns="http://www.w3.org/2000/svg" xmlns:xlink="http://www.w3.org/1999/xlink" width="30.831" height="33.639" viewBox="0 0 30.831 33.639">
  <defs>
    <clipPath id="clip-path">
      <rect id="Rectangle_3068" data-name="Rectangle 3068" width="30.831" height="33.639" fill="none"/>
    </clipPath>
  </defs>
  <g id="Group_4109" data-name="Group 4109" clip-path="url(#clip-path)">
    <path id="Path_2321" data-name="Path 2321" d="M28.765,10.264c.045.722.1,1.4.126,2.086a17.612,17.612,0,0,1-1.165,7.194A22.021,22.021,0,0,1,24.9,24.306c-.5.688-.994,1.388-1.444,2.111a4.86,4.86,0,0,0-.722,2.693c.022,1.55.006,3.1.006,4.651,0,.536-.145.684-.674.684H11.075c-.5,0-.657-.155-.657-.67q0-2.006,0-4.011v-.349c-.537-.113-1.053-.178-1.54-.332a5.482,5.482,0,0,1-3.785-4.233,15.323,15.323,0,0,1-.268-2.233c-.03-.32-.005-.645-.005-1H3.746c-.4,0-.809,0-1.213,0a1.429,1.429,0,0,1-1.307-2.205c1.13-2.093,2.276-4.178,3.4-6.273a1.673,1.673,0,0,0,.2-.694A12.07,12.07,0,0,1,7.029,5.726a11.071,11.071,0,0,1,7.43-4.506,15.317,15.317,0,0,1,6.776.321,9.844,9.844,0,0,1,7.223,7.443c.072.272.173.349.45.339C29.6,9.3,30.3,9.315,31,9.315a1.575,1.575,0,0,1,.2,0,.452.452,0,0,1,.457.484.434.434,0,0,1-.478.456c-.685.007-1.37,0-2.056.005h-.356m-2.7-.28.073,0c.291-.605.592-1.205.864-1.819a.684.684,0,0,0,.023-.488,8.661,8.661,0,0,0-5.3-4.993,14.155,14.155,0,0,0-7.279-.5,10.112,10.112,0,0,0-6.36,3.735,11.1,11.1,0,0,0-2.321,6.724,1.793,1.793,0,0,1-.207.76c-1.137,2.116-2.291,4.222-3.438,6.332-.337.62-.152.925.561.925.8,0,1.6,0,2.393,0,.574,0,.677.12.695.693a24.951,24.951,0,0,0,.13,2.722,4.808,4.808,0,0,0,4.879,4.357c.441.017.584.155.585.595,0,1.36,0,2.719,0,4.079v.367H21.789v-.389c0-1.258.035-2.518-.009-3.775a6.325,6.325,0,0,1,1.145-3.836c.582-.866,1.181-1.723,1.806-2.559a16.561,16.561,0,0,0,3.048-12.556,6.04,6.04,0,0,0-.247-.875.715.715,0,0,0-.242.3c-.287.6-.576,1.192-.858,1.791-.117.247-.253.465-.572.421-.3-.041-.381-.265-.437-.524-.174-.812-.36-1.621-.543-2.431-.027-.121-.065-.239-.1-.358l-.132-.021a14.589,14.589,0,0,0-.667,1.658,5.008,5.008,0,0,1-.647,1.539.774.774,0,0,0-.081.421,6.474,6.474,0,0,1,.038,1.032,2.494,2.494,0,0,1-1.526,1.84.931.931,0,0,0-.524,1.333,3.171,3.171,0,0,0,.212.457c.277.5.092.836-.483.841-.674.006-1.348,0-2.022,0-.583,0-.7-.122-.726-.706a2.106,2.106,0,0,0-.909-1.754.852.852,0,0,0-.461-.1c-.525,0-1.055.076-1.574.028a3.437,3.437,0,0,1-1.923-.971.57.57,0,0,0-.609-.115,2.988,2.988,0,0,1-.987.153A2.646,2.646,0,0,1,9.26,12a2.69,2.69,0,0,1,1.873-2.895.523.523,0,0,0,.291-.291,2.665,2.665,0,0,1,3.158-1.864.38.38,0,0,0,.441-.169A2.908,2.908,0,0,1,19.1,6.362a.526.526,0,0,0,.539.119A3.428,3.428,0,0,1,23.6,8.157c.046.083.1.164.165.276.271-.475.5-.926.781-1.342a.626.626,0,0,1,.482-.259c.15.02.287.23.4.378A.764.764,0,0,1,25.5,7.5l.561,2.484m-2.988.39-.1-.11H22.61c-.977,0-1.955,0-2.932,0-.346,0-.537-.184-.534-.471s.2-.467.54-.472c.562-.009,1.123,0,1.685,0H23a1.857,1.857,0,0,0-.029-.193A2.484,2.484,0,0,0,19.594,7.5a.652.652,0,0,1-.856-.18,1.969,1.969,0,0,0-3.184.349c-.275.466-.378.5-.9.292A1.719,1.719,0,0,0,12.29,9.369c-.05.451-.142.535-.607.6a1.632,1.632,0,0,0-1.39,1.124,1.613,1.613,0,0,0,.393,1.772,1.531,1.531,0,0,0,1.728.416,1.4,1.4,0,0,1,1.579.3,3.009,3.009,0,0,0,2.857.679,1.1,1.1,0,0,1,.67.086,2.822,2.822,0,0,1,1.514,1.879c.054.193.093.391.141.593h1.151c-.026-.118-.047-.213-.068-.308a1.838,1.838,0,0,1,1-2.168c.138-.075.281-.142.412-.227a1.357,1.357,0,0,0,.565-1.833.672.672,0,0,1,.143-.786,11.2,11.2,0,0,0,.7-1.119" transform="translate(-0.914 -0.898)" fill="#fff"/>
    <path id="Path_2322" data-name="Path 2322" d="M15.654,33.638H10.161c-.551,0-.747-.2-.748-.76q0-1.438,0-2.877v-1.41c-.147-.03-.293-.057-.434-.083a8.561,8.561,0,0,1-1.043-.237,5.573,5.573,0,0,1-3.845-4.3,10.473,10.473,0,0,1-.225-1.7c-.014-.183-.028-.365-.045-.547a5.806,5.806,0,0,1-.011-.68c0-.079,0-.16,0-.243H2.454c-.274,0-.557,0-.836,0A1.612,1.612,0,0,1,.2,20.055a1.593,1.593,0,0,1,.037-1.589Q1,17.036,1.783,15.609c.609-1.119,1.239-2.275,1.852-3.416a1.584,1.584,0,0,0,.185-.656A12.079,12.079,0,0,1,6.042,4.775,11.186,11.186,0,0,1,13.53.233a15.447,15.447,0,0,1,6.815.323,9.958,9.958,0,0,1,7.285,7.506c.061.232.126.281.36.272.5-.017,1.01-.014,1.5-.011l.59,0h.048a1.129,1.129,0,0,1,.165.006.543.543,0,0,1,.535.575.523.523,0,0,1-.567.543c-.49.005-.988,0-1.469.005h-.848c.013.2.026.391.04.583.034.485.066.943.08,1.41a17.606,17.606,0,0,1-1.172,7.23,21.825,21.825,0,0,1-2.842,4.782c-.591.807-1.049,1.477-1.44,2.106a4.794,4.794,0,0,0-.709,2.644c.016,1.113.012,2.244.009,3.338q0,.657,0,1.315c0,.586-.186.774-.764.774H15.654M2.832,20.625H3.995v.09c0,.115,0,.227-.005.337a5.668,5.668,0,0,0,.01.659c.017.183.031.366.045.55a10.336,10.336,0,0,0,.22,1.67A5.4,5.4,0,0,0,7.989,28.1a8.445,8.445,0,0,0,1.021.231c.166.031.338.062.51.1l.071.015V30q0,1.438,0,2.876c0,.466.112.58.568.58H21.147c.48,0,.584-.106.584-.594q0-.658,0-1.315c0-1.093.007-2.223-.009-3.335a4.971,4.971,0,0,1,.736-2.742c.394-.633.854-1.306,1.448-2.117a21.67,21.67,0,0,0,2.82-4.742,17.428,17.428,0,0,0,1.159-7.157c-.014-.463-.046-.92-.08-1.4-.015-.223-.031-.45-.046-.68l-.006-.1h1.039c.481,0,.978,0,1.467-.005a.348.348,0,0,0,.389-.368c.006-.23-.118-.358-.378-.392a1,1,0,0,0-.139,0h-.051l-.591,0c-.49,0-1-.007-1.494.01a.457.457,0,0,1-.54-.406A9.788,9.788,0,0,0,20.3.729,15.271,15.271,0,0,0,13.56.411,11.012,11.012,0,0,0,6.188,4.88,11.905,11.905,0,0,0,4,11.546a1.77,1.77,0,0,1-.206.733C3.18,13.42,2.55,14.577,1.941,15.7Q1.164,17.123.39,18.552a1.418,1.418,0,0,0-.04,1.412,1.436,1.436,0,0,0,1.269.661c.277,0,.56,0,.833,0h.379M20.965,32.668H10.36v-1.6q0-1.466,0-2.931c0-.386-.1-.49-.5-.5A4.9,4.9,0,0,1,4.9,23.193a16.16,16.16,0,0,1-.115-2.014c0-.24-.007-.479-.015-.718-.017-.531-.09-.6-.605-.606H1.767c-.4,0-.643-.091-.753-.277s-.072-.44.113-.781l.9-1.65c.835-1.533,1.7-3.118,2.539-4.682a1.7,1.7,0,0,0,.2-.721A11.122,11.122,0,0,1,7.1,4.967,10.213,10.213,0,0,1,13.516,1.2a14.293,14.293,0,0,1,7.324.506,8.77,8.77,0,0,1,5.352,5.043.778.778,0,0,1-.024.559c-.2.452-.42.9-.632,1.34q-.117.24-.233.481l-.026.054-.2-.01L24.5,6.623c-.007-.033-.012-.068-.017-.1a.356.356,0,0,0-.039-.151L24.394,6.3c-.09-.118-.2-.265-.293-.278a.54.54,0,0,0-.4.22c-.2.294-.371.6-.553.934-.073.132-.147.266-.225.4l-.076.134-.079-.132-.063-.1c-.039-.064-.072-.119-.1-.175A3.335,3.335,0,0,0,18.747,5.67a.613.613,0,0,1-.62-.135,2.815,2.815,0,0,0-3.949.409.468.468,0,0,1-.529.2,2.575,2.575,0,0,0-3.054,1.8.616.616,0,0,1-.348.349,2.606,2.606,0,0,0-1.812,2.8,2.55,2.55,0,0,0,2.416,2.237,2.944,2.944,0,0,0,.957-.149.658.658,0,0,1,.694.134,3.357,3.357,0,0,0,1.872.949,6.791,6.791,0,0,0,.976-.006c.193-.011.393-.021.589-.022a.929.929,0,0,1,.512.111,2.2,2.2,0,0,1,.948,1.824c.023.539.106.62.636.62h.48c.505,0,1.027,0,1.541,0,.246,0,.413-.067.483-.186a.555.555,0,0,0-.077-.522,3.206,3.206,0,0,1-.217-.47,1.018,1.018,0,0,1,.568-1.443A2.389,2.389,0,0,0,22.29,12.4a2.476,2.476,0,0,0-.011-.62c-.013-.13-.026-.264-.028-.4a.853.853,0,0,1,.1-.473,4.968,4.968,0,0,0,.634-1.512,8.289,8.289,0,0,1,.454-1.171c.073-.163.148-.331.217-.5l.027-.066.26.042.015.056c.01.037.021.074.032.112.023.081.048.165.067.251l.1.426c.149.657.3,1.336.447,2.006.058.27.133.423.361.454s.353-.1.478-.37c.243-.514.494-1.035.737-1.538l.122-.253a.8.8,0,0,1,.27-.329l.1-.077.036.124c.026.091.057.182.087.273a3.3,3.3,0,0,1,.162.615,16.54,16.54,0,0,1-3.065,12.622c-.573.766-1.163,1.6-1.8,2.555a6.2,6.2,0,0,0-1.129,3.783c.031.874.023,1.763.016,2.623,0,.385-.006.771-.006,1.156Zm-10.425-.18H20.785v-.3c0-.386,0-.771.007-1.157.007-.858.015-1.745-.016-2.615a6.377,6.377,0,0,1,1.16-3.889c.643-.956,1.234-1.795,1.809-2.563a16.368,16.368,0,0,0,3.03-12.491,3.123,3.123,0,0,0-.155-.581c-.016-.048-.033-.1-.048-.146a.638.638,0,0,0-.116.176l-.122.253c-.243.5-.494,1.023-.736,1.537-.121.256-.282.524-.665.472a.634.634,0,0,1-.513-.594c-.144-.669-.3-1.347-.446-2l-.1-.426c-.018-.08-.042-.162-.064-.24L23.8,7.862h-.005c-.062.147-.128.294-.192.437a8.173,8.173,0,0,0-.445,1.145,5.131,5.131,0,0,1-.659,1.565.721.721,0,0,0-.066.369c0,.125.014.255.027.381a2.658,2.658,0,0,1,.01.665,2.554,2.554,0,0,1-1.574,1.907.841.841,0,0,0-.48,1.222A3.048,3.048,0,0,0,20.62,16a.687.687,0,0,1,.075.7.675.675,0,0,1-.636.275c-.514.005-1.037,0-1.543,0h-.48c-.628,0-.788-.156-.816-.793a2.025,2.025,0,0,0-.87-1.683.751.751,0,0,0-.41-.08c-.192,0-.39.012-.58.022a6.927,6.927,0,0,1-1,.006,3.574,3.574,0,0,1-1.974-.993.481.481,0,0,0-.525-.1,3.109,3.109,0,0,1-1.018.156,2.729,2.729,0,0,1-2.584-2.4,2.783,2.783,0,0,1,1.934-2.99.433.433,0,0,0,.234-.233,2.751,2.751,0,0,1,3.263-1.924c.174.037.238,0,.353-.139a2.994,2.994,0,0,1,4.2-.435.44.44,0,0,0,.459.1,3.512,3.512,0,0,1,4.063,1.719c.026.046.053.091.084.142l.148-.266c.184-.333.358-.647.561-.948a.706.706,0,0,1,.569-.3c.166.023.3.2.412.347l.049.064a.476.476,0,0,1,.076.239c0,.03.008.06.014.088L25.2,8.921l.171-.352c.212-.435.43-.885.63-1.334a.6.6,0,0,0,.023-.416A8.6,8.6,0,0,0,20.78,1.875a14.113,14.113,0,0,0-7.233-.5,10.038,10.038,0,0,0-6.305,3.7,10.948,10.948,0,0,0-2.3,6.672,1.889,1.889,0,0,1-.217.8c-.84,1.564-1.7,3.149-2.54,4.682l-.9,1.65c-.151.277-.19.48-.116.6s.276.189.6.189H4.16c.618,0,.765.148.785.78.007.24.011.48.015.721a16.013,16.013,0,0,0,.114,1.992,4.727,4.727,0,0,0,4.794,4.28c.495.019.671.2.672.684q0,1.466,0,2.932Zm8.982-16.48H18.189l-.016-.069c-.015-.065-.03-.129-.044-.193-.031-.137-.06-.267-.1-.4a2.737,2.737,0,0,0-1.467-1.822,1,1,0,0,0-.611-.08,3.079,3.079,0,0,1-2.937-.7,1.3,1.3,0,0,0-1.485-.279,1.628,1.628,0,0,1-1.824-.436,1.7,1.7,0,0,1-.414-1.866,1.726,1.726,0,0,1,1.462-1.183c.431-.063.485-.117.531-.523a1.809,1.809,0,0,1,2.492-1.481c.474.191.533.172.784-.254a2.089,2.089,0,0,1,1.589-1.039,2.053,2.053,0,0,1,1.739.675.563.563,0,0,0,.754.158,2.6,2.6,0,0,1,2.143.051A2.566,2.566,0,0,1,22.142,8.2a.848.848,0,0,1,.021.125c0,.023.006.049.01.079l.015.1H19.964c-.391,0-.8,0-1.194,0-.285,0-.449.144-.451.383a.348.348,0,0,0,.107.275.506.506,0,0,0,.338.106c.7.005,1.415,0,2.105,0H22.1l.174.189-.035.058c-.068.112-.134.227-.2.341a6.456,6.456,0,0,1-.5.787.585.585,0,0,0-.131.694,1.453,1.453,0,0,1-.6,1.945c-.1.063-.2.116-.3.168l-.119.063a1.757,1.757,0,0,0-.957,2.07l.044.2Zm-1.191-.18H19.3l-.044-.2A1.924,1.924,0,0,1,20.3,13.362l.121-.064c.1-.05.2-.1.285-.16a1.273,1.273,0,0,0,.531-1.721.759.759,0,0,1,.154-.879,6.319,6.319,0,0,0,.488-.765c.055-.1.11-.192.167-.287l-.029-.031H20.87c-.691,0-1.4,0-2.107,0a.679.679,0,0,1-.457-.152.527.527,0,0,1-.166-.41.563.563,0,0,1,.629-.562c.4-.006.8,0,1.2,0,.163,0,.327,0,.489,0h1.528a.574.574,0,0,0-.014-.08,2.386,2.386,0,0,0-1.259-1.515,2.415,2.415,0,0,0-1.994-.047.742.742,0,0,1-.957-.2,1.875,1.875,0,0,0-1.587-.617,1.911,1.911,0,0,0-1.453.951c-.3.505-.448.554-1.007.33A1.629,1.629,0,0,0,11.466,8.48c-.054.487-.176.608-.684.682a1.62,1.62,0,0,0-.946,2.743,1.44,1.44,0,0,0,1.631.4,1.48,1.48,0,0,1,1.672.313,2.91,2.91,0,0,0,2.777.658,1.179,1.179,0,0,1,.73.093A2.91,2.91,0,0,1,18.206,15.3c.037.134.068.272.1.406l.027.122" transform="translate(0 0.001)" fill="#fff"/>
  </g>
</svg>
