<svg xmlns="http://www.w3.org/2000/svg" xmlns:xlink="http://www.w3.org/1999/xlink" width="37.634" height="37.644" viewBox="0 0 37.634 37.644">
  <defs>
    <clipPath id="clip-path">
      <rect id="Rectangle_3069" data-name="Rectangle 3069" width="37.634" height="37.644" fill="none"/>
    </clipPath>
  </defs>
  <g id="Group_4112" data-name="Group 4112" transform="translate(0 0)">
    <g id="Group_4111" data-name="Group 4111" transform="translate(0 0)" clip-path="url(#clip-path)">
      <path id="Path_2323" data-name="Path 2323" d="M3.221,37.472a2.265,2.265,0,0,1-.059-2.344A2.136,2.136,0,0,1,5.066,34l6.457-.178V32.391l-3.388.461Q4.4,33.36.661,33.872c-.341.047-.591-.059-.651-.4-.063-.36.164-.529.5-.575q2.226-.308,4.452-.613c2.507-.343,5.015-.681,7.521-1.029,1.286-.178,2.57-.374,3.928-.573a1.145,1.145,0,0,0-1.076-.325,2.267,2.267,0,0,1-1.086-.232,3.034,3.034,0,0,1-.576-.346,2.632,2.632,0,0,1-2.377.769c-2.092-.136-4.186-.242-6.278-.372-.947-.059-1.9-.119-2.839-.229a2.324,2.324,0,0,1-2.1-1.97A2.384,2.384,0,0,1,1.01,25.4c2.345-1.738,4.719-3.437,7.081-5.153a3.484,3.484,0,0,1,2.264-.524c.251.007.5,0,.89,0-1.469-1.351-1.255-3.014-1.212-4.617.039-1.419.185-2.834.23-4.252a.96.96,0,0,1,.748-.99,6.329,6.329,0,0,1,1.507-.313,11.031,11.031,0,0,1,3.931.25c.72.231.9.47.936,1.207q.113,2.417.232,4.834a4.505,4.505,0,0,1-1.15,3.818,10.291,10.291,0,0,1,1.483.236,3.932,3.932,0,0,1,2.844,3.79c.033,1.469.008,2.938.009,4.407,0,.358-.093.678-.512.677s-.508-.314-.507-.676q.006-2.18,0-4.36A3.015,3.015,0,0,0,16.9,20.692c-.783-.065-1.346.086-1.632.866a.272.272,0,0,1-.044.085,3.98,3.98,0,0,0-.888,3.2,1.44,1.44,0,0,1,0,.242c-.017.33-.158.579-.513.581s-.508-.238-.51-.576c0-.533.02-1.067-.009-1.6a1.7,1.7,0,0,0-.2-.721c-.34-.6-.7-1.2-1.1-1.766-.1-.152-.35-.208-.533-.3-.025-.013-.063,0-.1,0-2.641.024-1.9-.2-4.061,1.336-1.247.889-2.479,1.8-3.719,2.7q-.936.679-1.876,1.355a1.616,1.616,0,0,0-.684,1.733,1.588,1.588,0,0,0,1.377,1.194c2.218.162,4.438.3,6.658.438a1.9,1.9,0,0,0,.273-.025c.095-.784.19-1.563.292-2.407-.706-.127-1.38-.251-2.055-.368-.809-.141-1.619-.274-2.428-.413-.336-.058-.537-.245-.473-.6.059-.333.3-.435.615-.381.889.151,1.776.318,2.669.447a1.219,1.219,0,0,0,.67-.107,12.322,12.322,0,0,0,1.077-.649c.3-.186.593-.221.789.119.179.311.031.553-.257.725a.607.607,0,0,0-.265.3c.612.042,1.223.107,1.836.119a3.757,3.757,0,0,1,1.947.642c.627.394,1.265.768,1.9,1.145a1.379,1.379,0,0,1,.713,1.186c.008.145.139.285.22.424.014.024.056.031.081.051a3.688,3.688,0,0,0,2.912.739,11.214,11.214,0,0,1,4.839.347c.682.224,1.332.551,2.019.841a4.491,4.491,0,0,1,1.115-2.251,4.415,4.415,0,0,1,5.959-.54,3.538,3.538,0,0,1,1.038,4.194c-.076.194-.168.381-.286.646.276-.091.5-.167.716-.235a2.014,2.014,0,0,1,1.881,3.492c-.276.218-.585.363-.854.044s-.1-.577.2-.807a1.009,1.009,0,0,0-.982-1.749q-4.657,1.683-9.307,3.381a13.573,13.573,0,0,1-1.9.663,9.18,9.18,0,0,1-1.781.043q-8.691-.006-17.382-.015c-1.338,0-2.675.011-4.013.016-.113,0-.227.008-.339,0-.318-.03-.561-.213-.486-.523a.714.714,0,0,1,.494-.446c.788-.049,1.581-.022,2.372-.023h.323m9.324-3.59c1.2-.11,2.344-.177,3.475-.324,1.614-.21,3.221-.48,4.831-.721.341-.051.594.079.62.438.023.321-.184.49-.5.533-.511.068-1.024.129-1.528.229a47,47,0,0,1-8.944.831c-1.775.007-3.55.07-5.324.114a1.262,1.262,0,0,0-1.319,1.3A1.3,1.3,0,0,0,5.11,37.5c2.873-.012,5.745,0,8.617-.046a27.45,27.45,0,0,0,3.311-.293c2.2-.308,4.4-.671,6.593-1.01.321-.049.6.021.678.377.081.378-.165.507-.5.56-.533.087-1.064.191-1.6.288a3.932,3.932,0,0,0,3.607-.99,2.629,2.629,0,0,0,.906-2.737,2.693,2.693,0,0,0-1.558-1.57,8.179,8.179,0,0,0-4.191-.762c-1.9.114-3.79.32-5.682.52-.923.1-1.837.275-2.755.415Zm17.828.922.048.131a10.445,10.445,0,0,0,1.862-.714,2.974,2.974,0,0,0,1.538-2.96,2.534,2.534,0,0,0-1.606-2.13,3.5,3.5,0,0,0-3.9.859A2.773,2.773,0,0,0,30.373,34.8M11.153,12.689h-.041c0,.484.023.969-.008,1.45a.371.371,0,0,0,.344.462,10.712,10.712,0,0,0,4.695-.045.4.4,0,0,0,.378-.494c-.059-.982-.074-1.967-.145-2.947a.574.574,0,0,0-.35-.4,9.522,9.522,0,0,0-4.453.012.536.536,0,0,0-.314.374c-.065.527-.075,1.061-.106,1.592M11.115,17.5a2.716,2.716,0,0,0,2.753,2.211A2.68,2.68,0,0,0,16.5,17.533a9.008,9.008,0,0,1-5.384-.029m-.776,12.069c.542,0,1.022,0,1.5,0A1.1,1.1,0,0,0,13,28.893a.426.426,0,0,1,.691-.241c.346.2.678.429,1.038.6a1.747,1.747,0,0,0,.578.056c-.088-.178-.128-.428-.271-.524q-.975-.654-2-1.23a4.765,4.765,0,0,0-2.43-.406c-.089.813-.172,1.573-.265,2.428m6.252-14.1a12.314,12.314,0,0,1-5.576.063V16.5a9.053,9.053,0,0,0,5.576-.01Zm-1.943,5.2H12.985l.843,1.351.82-1.351M28.939,35.612l-1.16-.642-.43,1.129c.046.015.08.039.1.031.482-.166.963-.336,1.488-.519" transform="translate(0 -3.863)" fill="#fff"/>
      <path id="Path_2324" data-name="Path 2324" d="M43.659,4a4.028,4.028,0,0,1,4.51-1.946c0-.553,0-.984,0-1.415,0-.339.078-.634.484-.641s.488.286.487.627c0,.936-.018,1.873.014,2.808.007.188.182.507.315.526.354.053.312-.276.312-.512q.006-1.38,0-2.76c0-.356.068-.674.492-.688s.5.3.5.662c-.006.984.009,1.969,0,2.953a1.3,1.3,0,1,1-2.606.029c-.009-.193,0-.386,0-.561A3.227,3.227,0,0,0,44.347,4.72c.074.091.18.224.289.355a9.248,9.248,0,0,1,2.3,4.865,3.647,3.647,0,0,1-1.14,3.289,17.77,17.77,0,0,0-1.4,1.4,3.776,3.776,0,0,1-4.279,1.115A10.748,10.748,0,0,1,32.4,7.562a3.515,3.515,0,0,1,1.041-3.5c.622-.585,1.2-1.214,1.82-1.806a3.575,3.575,0,0,1,3.076-.928A9.308,9.308,0,0,1,43.269,3.7c.1.082.2.155.39.3M44,12.421a6.393,6.393,0,0,0-.174-1.094,9.9,9.9,0,0,0-7.4-6.979,2.365,2.365,0,0,0-3.1,2.577,4.983,4.983,0,0,0,.145,1A9.987,9.987,0,0,0,37.3,13.292a7.674,7.674,0,0,0,3.719,1.63A2.384,2.384,0,0,0,44,12.421m1.1.133a5.584,5.584,0,0,0,.588-.793,3.424,3.424,0,0,0,.068-2.685,10.364,10.364,0,0,0-5.459-6.155,5.232,5.232,0,0,0-2.941-.61,2.2,2.2,0,0,0-1.658.962c4.438.1,9.211,5.056,9.4,9.281" transform="translate(-13.145 0)" fill="#fff"/>
      <path id="Path_2325" data-name="Path 2325" d="M33.509,57.195c.355.871.669,1.681,1.015,2.477.148.34.13.626-.21.771-.379.161-.585-.078-.723-.425-.324-.819-.669-1.63-1.021-2.481-1.131.4-2.236.786-3.342,1.172-1.6.558-3.191,1.119-4.79,1.667a2.05,2.05,0,0,1-.658.112q-11.329.009-22.659.005A1.612,1.612,0,0,1,.5,60.469c-.185-.084-.429-.3-.43-.457s.225-.395.406-.486A1.525,1.525,0,0,1,1.1,59.5c7.214,0,14.429-.023,21.643.021A9.618,9.618,0,0,0,26,58.791c2.372-.823,4.737-1.667,7.105-2.5l.046-.017c.339-.122.694-.2.865.219.161.4-.112.591-.512.7" transform="translate(-0.028 -22.868)" fill="#fff"/>
      <path id="Path_2326" data-name="Path 2326" d="M59.392,55.825c-.337.218-.537.449-.714.432a.691.691,0,0,1-.465-.446.41.41,0,0,1,.483-.493c.2.026.369.258.7.508" transform="translate(-23.695 -22.518)" fill="#fff"/>
      <path id="Path_2327" data-name="Path 2327" d="M22.834,13.316c.413.041.948-.078.926.526-.021.575-.541.469-.932.493-.062.413.067.963-.553.958-.6-.006-.469-.533-.51-.928-.38-.091-.955.081-.96-.541s.547-.443.926-.516c.108-.385-.074-1,.581-.974.564.024.465.552.522.983" transform="translate(-8.47 -5.02)" fill="#fff"/>
      <path id="Path_2328" data-name="Path 2328" d="M38.425,12.237a1.035,1.035,0,0,1-1.195,1.075,3.216,3.216,0,0,1-2.4-2.908,1.007,1.007,0,0,1,1.175-.982,3.313,3.313,0,0,1,2.42,2.814m-1.051.021c.032-.8-.872-1.827-1.554-1.767a2.042,2.042,0,0,0,1.554,1.767" transform="translate(-14.179 -3.831)" fill="#fff"/>
      <path id="Path_2329" data-name="Path 2329" d="M44.837,14.46a3.24,3.24,0,0,1-2.666-2.551,1.069,1.069,0,0,1,1.551-1.1,3.228,3.228,0,0,1,2.164,2.338,1.015,1.015,0,0,1-1.049,1.313m.031-1.014a1.907,1.907,0,0,0-1.689-1.661,2.115,2.115,0,0,0,1.689,1.661" transform="translate(-17.167 -4.361)" fill="#fff"/>
      <path id="Path_2330" data-name="Path 2330" d="M47.1,20.884a.994.994,0,0,1-1.151,1.053,3.289,3.289,0,0,1-2.708-2.352,1.015,1.015,0,0,1,.86-1.23,3.1,3.1,0,0,1,3,2.529m-2.826-1.6a1.877,1.877,0,0,0,1.874,1.575,2.594,2.594,0,0,0-1.874-1.575" transform="translate(-17.596 -7.465)" fill="#fff"/>
    </g>
  </g>
</svg>
