<svg xmlns="http://www.w3.org/2000/svg" xmlns:xlink="http://www.w3.org/1999/xlink" width="32.639" height="39.657" viewBox="0 0 32.639 39.657">
  <defs>
    <clipPath id="clip-path">
      <rect id="Rectangle_3070" data-name="Rectangle 3070" width="32.639" height="39.657" fill="none"/>
    </clipPath>
  </defs>
  <g id="Group_4114" data-name="Group 4114" transform="translate(0 0)">
    <g id="Group_4113" data-name="Group 4113" transform="translate(0 0)" clip-path="url(#clip-path)">
      <path id="Path_2331" data-name="Path 2331" d="M11.229,35.78c-.819,2.108-2.441,3.524-4.045,4.954-.776.692-1.558,1.377-2.331,2.073a2.777,2.777,0,0,1-4.031-.175,2.709,2.709,0,0,1,.111-3.987Q3.044,36.6,5.175,34.573a.765.765,0,0,0,.225-.924c-.3-.811-.561-1.635-.853-2.449a7.031,7.031,0,0,1-.457-2.579,28.413,28.413,0,0,1,1.037-7.652,12.144,12.144,0,0,1,3.253-5.424,6.248,6.248,0,0,1,6.59-1.6,3.069,3.069,0,0,1,2.275,3.115c-.037.485-.225.957-.294,1.443a1.494,1.494,0,0,0,.077.752,6.545,6.545,0,0,0,3.192,3.232c1.187.63,2.379,1.251,3.582,1.849a2.6,2.6,0,0,1,1.532,2.691.462.462,0,0,0,.309.541,6.1,6.1,0,0,1,3.72,5.268c.183,1.826.484,3.641.716,5.462a.569.569,0,0,0,.512.565,2.686,2.686,0,0,1,2.023,2.99,2.754,2.754,0,0,1-2.629,2.359A2.714,2.714,0,0,1,27.2,41.912a2.656,2.656,0,0,1,1.458-2.848c.258-.127.357-.254.318-.54-.176-1.253-.33-2.507-.511-3.758-.016-.114-.171-.3-.264-.3-2.238-.017-4.477-.013-6.774-.013-.578,3.078-1.154,6.142-1.74,9.263l-1.118-.205c.232-1.247.454-2.446.678-3.645.626-3.334,1.248-6.668,1.886-10,.068-.352-.019-.5-.356-.642A23.037,23.037,0,0,1,15.8,26.461a2.35,2.35,0,0,0-.3-.146c0,.381,0,.7,0,1.008a8.294,8.294,0,0,1-.284,2.73c-.039.114.074.32.173.437a5.656,5.656,0,0,1,1.412,2.56,9.655,9.655,0,0,1,.163,1.744c.009,2.16-.022,4.32-.017,6.48a2.639,2.639,0,0,1-1.331,2.512,2.967,2.967,0,0,1-3.085-.014,2.616,2.616,0,0,1-1.308-2.448c0-1.733.013-3.467.021-5.2,0-.115-.009-.23-.015-.344m-1.454-4.1.078-.037c.573.517,1.132,1.049,1.721,1.546a2.254,2.254,0,0,1,.819,1.9c-.031,2.106-.017,4.214-.015,6.321a1.489,1.489,0,0,0,1.2,1.572,1.656,1.656,0,0,0,2.213-1.71c.023-2.174.022-4.348.06-6.521a4.845,4.845,0,0,0-1.435-3.609c-.167-.171-.326-.354-.505-.513-.153-.137-.2-.253-.068-.439a3.234,3.234,0,0,0,.5-1.861c.015-.866.039-1.733.1-2.6a.77.77,0,0,0-.241-.666c-.556-.575-1.109-1.155-1.632-1.759a11.158,11.158,0,0,1-1.936-2.921,3.781,3.781,0,0,1,.2-3.672,2.479,2.479,0,0,1,3.518-.811,10.911,10.911,0,0,1,1.341,1.183c.1.09.184.2.323.35a1.615,1.615,0,0,0-.429-1.758,3.139,3.139,0,0,0-1.078-.655,5.111,5.111,0,0,0-5.329,1.345,11.207,11.207,0,0,0-2.97,4.994,26.941,26.941,0,0,0-.963,6.5,8.091,8.091,0,0,0,.583,3.553c.254.628.449,1.28.666,1.923a1.767,1.767,0,0,1-.488,2.031c-1.449,1.359-2.875,2.744-4.3,4.128a1.57,1.57,0,0,0-.068,2.342,1.7,1.7,0,0,0,2.433.133c.948-.841,1.922-1.653,2.835-2.53a29.093,29.093,0,0,0,2.3-2.44,4.106,4.106,0,0,0,.892-3.56c-.118-.585-.217-1.173-.324-1.76m1.64-13.011a2.868,2.868,0,0,0,.508,1.74c.654.953,1.334,1.894,2.073,2.781a18.874,18.874,0,0,0,7.961,5.3,1.6,1.6,0,0,0,2.119-1.036,1.546,1.546,0,0,0-.855-2.114c-.947-.455-1.87-.96-2.813-1.421a9.127,9.127,0,0,1-4.779-4.865,4.654,4.654,0,0,0-1.768-2.126,1.3,1.3,0,0,0-1.758.06,2.173,2.173,0,0,0-.688,1.683M21.65,33.27h6.567a.409.409,0,0,0,.027-.1c-.021-.185-.047-.369-.069-.554a4.924,4.924,0,0,0-3.126-4.064.334.334,0,0,0-.305.032,2.8,2.8,0,0,1-2.433,1.167c-.221,1.18-.439,2.336-.661,3.521m7.512,6.9a1.439,1.439,0,0,0-.826,1.659,1.586,1.586,0,0,0,1.752,1.234A1.56,1.56,0,0,0,31.476,41.6a1.458,1.458,0,0,0-1.16-1.573c.047.455.093.9.141,1.367l-1.122.107c-.06-.47-.116-.9-.173-1.335" transform="translate(0 -4.561)" fill="#fff"/>
      <path id="Path_2332" data-name="Path 2332" d="M24.295,0a4.794,4.794,0,0,1,4.774,4.784A4.774,4.774,0,1,1,24.295,0M20.673,4.76a3.624,3.624,0,1,0,3.6-3.606,3.629,3.629,0,0,0-3.6,3.606" transform="translate(-6.549 0)" fill="#fff"/>
    </g>
  </g>
</svg>
