<svg xmlns="http://www.w3.org/2000/svg" xmlns:xlink="http://www.w3.org/1999/xlink" width="34.404" height="33.865" viewBox="0 0 34.404 33.865">
  <defs>
    <clipPath id="clip-path">
      <rect id="Rectangle_3071" data-name="Rectangle 3071" width="34.404" height="33.865" fill="none"/>
    </clipPath>
  </defs>
  <g id="Group_4116" data-name="Group 4116" transform="translate(0 0)">
    <g id="Group_4115" data-name="Group 4115" transform="translate(0 0)" clip-path="url(#clip-path)">
      <path id="Path_2333" data-name="Path 2333" d="M15.044,12.9c-.783,0-1.5-.014-2.224.006-.369.009-.62-.009-.635-.494-.011-.343-.252-.366-.576-.043h.41a.774.774,0,0,1-.883.44A4.641,4.641,0,0,1,8.1,10.906c-.364-.5-.684-1.04-1.019-1.564-.195-.306-.271-.629.077-.867s.611-.03.807.278c.279.438.549.88.836,1.312a3.674,3.674,0,0,0,3.223,1.742q1.582,0,3.164,0c.78,0,.9.116.9.9q0,10.761,0,21.523a4.309,4.309,0,0,0,.011.57.768.768,0,0,0,.791.738.756.756,0,0,0,.8-.661,2.57,2.57,0,0,0,.03-.567q0-5.576,0-11.151a1.816,1.816,0,0,1,2.374-1.833,1.761,1.761,0,0,1,1.269,1.543c.03.361.022.725.022,1.088q0,5.187,0,10.373a2.522,2.522,0,0,0,.049.617.731.731,0,0,0,.8.592.748.748,0,0,0,.756-.655,3.181,3.181,0,0,0,.021-.621q0-10.735,0-21.471c0-.9.088-.985.97-.984,1.038,0,2.075,0,3.112,0A3.658,3.658,0,0,0,30.3,10.094c.356-.531.69-1.077,1.03-1.618.2-.324.461-.566.844-.306.347.234.265.558.066.866-.375.581-.733,1.173-1.125,1.742a4.661,4.661,0,0,1-3.563,2.092c-.182-.274-.332-.512-.5-.731-.013-.017-.192.1-.249.263l.3-.047.076.141c-.243.136-.477.365-.731.389-.6.058-1.208.018-1.813.018h-.551v.74q0,10.476,0,20.952a1.855,1.855,0,0,1-2.454,1.91,1.826,1.826,0,0,1-1.271-1.869q0-5.55,0-11.1a3.762,3.762,0,0,0-.012-.518.759.759,0,0,0-.752-.725.749.749,0,0,0-.781.69,3.324,3.324,0,0,0-.022.568c0,3.7.006,7.4,0,11.1a1.842,1.842,0,0,1-2.408,1.866,1.816,1.816,0,0,1-1.314-1.627c-.014-.172-.007-.346-.007-.519V12.9" transform="translate(-2.352 -2.74)" fill="#fff"/>
      <path id="Path_2334" data-name="Path 2334" d="M4.134,4.571c.17.494.248.991-.211,1.213-.553.268-1.094.795-1.817.374a.841.841,0,0,0-.479-.023.819.819,0,0,1-.956-.529c-.2-.494-.418-.986-.6-1.489a.807.807,0,0,1,.364-1.07c.1-.059.254-.129.271-.217.166-.861.942-.894,1.544-1.1.524-.177.8.261,1.038.733l1.883-.758c-.143-.467-.253-.955.207-1.2C5.92.22,6.466-.211,7.167.118A.86.86,0,0,0,7.649.16a.807.807,0,0,1,.97.5c.222.506.426,1.021.609,1.542a1.012,1.012,0,0,1,.02.554,1.3,1.3,0,0,1-.28.419c-.529.668-1.085,1.36-2.011,1.371-.335,0-.675-.347-1.012-.536.017-.056.034-.112.05-.168-.3.113-.606.222-.907.341s-.6.248-.955.392m-.64-.98a.964.964,0,0,1-1.181-.583c-.038-.088-.218-.144-.338-.157a.3.3,0,0,0-.238.145c-.151.342-.275.7-.409,1.044a.954.954,0,0,0,.143.675.582.582,0,0,0,.338.21c.257.07.524.1.785.155s.531.069.42-.315c-.128-.444.017-.769.479-1.174m2.324-.9c.665-.177,1.009.2,1.341.877.178-.325.277-.531.4-.722.137-.216.3-.419.445-.628l.139.1-.36-.877c-.437-.1-.773-.18-1.11-.254-.257-.056-.494-.021-.4.314a1.021,1.021,0,0,1-.455,1.192" transform="translate(0 0)" fill="#fff"/>
      <path id="Path_2335" data-name="Path 2335" d="M43.149,4.578l-1.8-.724a1.987,1.987,0,0,1-.24.347,1.581,1.581,0,0,1-.486.36,2.158,2.158,0,0,1-1.842-.885,1.074,1.074,0,0,0-.341-.409.806.806,0,0,1-.361-.988A15.733,15.733,0,0,1,38.738.644c.086-.18.329-.426.479-.412.758.073,1.5-.4,2.284.047.716.405.878.566.658,1.449l1.858.762a1.526,1.526,0,0,1,.228-.353,1.581,1.581,0,0,1,.581-.387,2.144,2.144,0,0,1,1.763,1.007.776.776,0,0,0,.3.315.811.811,0,0,1,.368,1.069c-.187.519-.4,1.03-.622,1.535a.831.831,0,0,1-.334.378,1.857,1.857,0,0,1-.541.111,2.576,2.576,0,0,1-2.421-.415c-.229-.221-.222-.687-.323-1.042l.131-.13m2.668.276c.057-.141.175-.389.259-.648a.437.437,0,0,0-.038-.316,9.633,9.633,0,0,0-.535-.823.458.458,0,0,0-.274-.191c-.1-.009-.277.07-.29.135-.131.684-.634.656-1.235.593.526.3.775.64.6,1.195-.1.335.133.378.389.323.341-.073.679-.163,1.119-.269m-4.3-2.135a.984.984,0,0,1-.467-1.138c.106-.36-.1-.428-.395-.363-.339.073-.675.154-1.108.253l-.325.8,1.02,1.277c.261-.7.652-.964,1.275-.831" transform="translate(-12.926 -0.029)" fill="#fff"/>
      <path id="Path_2336" data-name="Path 2336" d="M22.582,10.075a3.885,3.885,0,0,1,.838-.2c1.451-.02,2.9-.024,4.353,0a2.159,2.159,0,0,0,2.025-1.1c.25-.414.52-.815.786-1.219a.514.514,0,0,1,.752-.22.5.5,0,0,1,.149.766,19.547,19.547,0,0,1-1.108,1.687,2.78,2.78,0,0,1-2.24,1.116c-1.4.015-2.8-.007-4.2.021a1.278,1.278,0,0,0-.733.275,4.247,4.247,0,0,1-5.6.009,1.351,1.351,0,0,0-.779-.283c-1.312-.028-2.626-.024-3.938-.009a3.108,3.108,0,0,1-2.842-1.576c-.21-.337-.434-.666-.632-1.01a.509.509,0,0,1,.176-.762.5.5,0,0,1,.714.2c.246.354.47.723.7,1.087A2.072,2.072,0,0,0,12.871,9.87c1.5-.008,3.006,0,4.509,0a.973.973,0,0,1,.873.417,3.127,3.127,0,0,0,4.141.178,1.573,1.573,0,0,0,.206-.4Z" transform="translate(-3.166 -2.462)" fill="#fff"/>
      <path id="Path_2337" data-name="Path 2337" d="M26.812,8.961a3.728,3.728,0,0,1-2.314.857,2.9,2.9,0,0,1-.572-5.724,2.913,2.913,0,0,1,3.095,4.481c-.084.129-.151.269-.226.4l.017-.017m-2.26-4.505.061.141c-.328.254-.644.528-.988.758a1.878,1.878,0,0,0-.764,2.126,1.837,1.837,0,0,0,3.564-.238,1.79,1.79,0,0,0-1.04-1.99c-.371-.152-.6-.291-.6-.75,0-.374-.275-.331-.523-.1l.292.058" transform="translate(-7.379 -1.365)" fill="#fff"/>
    </g>
  </g>
</svg>
