<svg xmlns="http://www.w3.org/2000/svg" xmlns:xlink="http://www.w3.org/1999/xlink" width="26.339" height="35.597" viewBox="0 0 26.339 35.597">
  <defs>
    <clipPath id="clip-path">
      <rect id="Rectangle_3072" data-name="Rectangle 3072" width="26.339" height="35.597" transform="translate(0 0.001)" fill="none" stroke="#fff" stroke-width="1"/>
    </clipPath>
  </defs>
  <g id="Group_4118" data-name="Group 4118" transform="translate(0 0)">
    <g id="Group_4117" data-name="Group 4117" clip-path="url(#clip-path)">
      <path id="Path_2338" data-name="Path 2338" d="M26.33,32.987a2.332,2.332,0,0,0-2.3-2.148c-.9-.04-1.8-.018-2.7-.01-.318,0-.461-.048-.322-.419a1.871,1.871,0,0,0,0-1.116Q20.261,26.347,19.5,23.4a2.52,2.52,0,0,0-.532-.984c-.827-1-1.628-2.019-2.472-3-.328-.384-.5-.7-.191-1.193a3.076,3.076,0,0,0,.316-1.4c.069-.9.174-1.79.212-2.688.02-.449.195-.533.609-.53,2.489.02,4.979.01,7.469.01.167,0,.335,0,.5-.011a.268.268,0,0,0,.27-.285.3.3,0,0,0-.229-.333,2.985,2.985,0,0,0-.56-.038c-2.427,0-4.854-.024-7.281.014-.614.01-.7-.207-.607-.725.117-.616.192-1.24.28-1.86A3.565,3.565,0,0,0,10.781,7.86c-.483.709-.971,1.414-1.47,2.111-.848,1.184-.852,1.743.1,2.978H8.628q-3.861,0-7.721,0c-.9,0-.906,0-.906.9Q0,23.42,0,32.991A2.355,2.355,0,0,0,2.6,35.6q10.575,0,21.152,0a3.654,3.654,0,0,0,.748-.053,2.318,2.318,0,0,0,1.83-2.555M20.152,28.6a5.431,5.431,0,0,0,.2.785c.241,1.014-.105,1.457-1.188,1.453-.6.113-.887-.245-1.045-.824-.431-1.579-.433-1.553,1.134-1.969.568-.151.853-.072.9.555m-.4-1.612c.055.251-.129.316-.316.363a10.554,10.554,0,0,0-1.209.295c-.563.213-.724,0-.872-.531-.156-.553-.014-.759.517-.821a6.6,6.6,0,0,0,.789-.178c.819-.2,1.065-.007,1.091.872m-4.059-7.525c.158.21.34.382.01.61-.211.146-.351.169-.518-.054-.34-.452-.694-.892-1.051-1.33a.433.433,0,0,1-.049-.458,2.319,2.319,0,0,0-.767-2.746,2.376,2.376,0,0,0-2.857.114,1.366,1.366,0,0,1-.2.068c.043-.582.089-1.123.118-1.665.015-.279.118-.393.42-.4a2.954,2.954,0,0,1,1.213.261c.545.213,1.1.408,1.634.641a1.957,1.957,0,0,0,2.475-.529c-.2,1.5.155,3.083-.691,4.47-.308.5.042.725.266,1.023m-5.238,2.781c.094-.806.1-.837.921-.706a4.177,4.177,0,0,0,.682.089c.612,0,.839.224.695.868-.087.391-.134.668-.46.553a12.341,12.341,0,0,0-1.275-.158c-.461-.007-.618-.169-.563-.646m-.119-4.916a1.634,1.634,0,1,1,1.593,1.659,1.616,1.616,0,0,1-1.593-1.659m2.042,3.685c-.456-.056-.891-.116-1.327-.163-.287-.03-.374-.162-.353-.457.051-.719.064-.731.716-.413a7.47,7.47,0,0,0,.76.288c.1.035.208.04.3.082.238.108.495.3.456.539-.057.346-.382.049-.553.124m.177-1.351c1.032-.582,1.032-.582,1.717.275.1.13.2.263.315.389.178.2.314.373-.019.59-.266.174-.43.318-.711-.02-.373-.448-.607-1.063-1.3-1.234m-2.248,4.055c.018-.287.247-.216.477-.206.447.058.942.128,1.439.182.28.03.376.143.365.443a4.142,4.142,0,0,1-1.155,2.3c-.153.2-.294.036-.421-.059-.4-.3-.785-.62-1.195-.906-.269-.188-.294-.353-.084-.6a1.977,1.977,0,0,0,.574-1.152m-.6,2.487c.294.231.592.457.886.687.095.075.222.126.229.341a5.43,5.43,0,0,1-.66.828c-.228.2-.4-.11-.568-.226-.31-.209-.59-.461-.9-.663-.388-.248-.414-.473-.112-.84.509-.616.484-.636,1.129-.127m-.3,2.32c.206.184.222.305.056.509-.4.486-.781.981-1.163,1.478a.894.894,0,0,1-.906.318.89.89,0,0,1-1.031-.5A1.11,1.11,0,0,1,6.483,29.1c.086-.118.176-.234.266-.349,1.2-1.531,1.194-1.526,2.657-.219m-.085,1.8c1.012-1.333,2.021-2.668,3.052-3.986a4.035,4.035,0,0,0,.89-2.3c.049-.746.179-1.486.273-2.229.725.9,1.5,1.7,2.258,2.523a2.089,2.089,0,0,1,.282.481,1.176,1.176,0,0,1,.062.242c.493,1.9.987,3.8,1.491,5.734H9.071c-.05-.23.145-.332.25-.47m6.668-7.1a1.16,1.16,0,0,1,.554-.347,3.981,3.981,0,0,1,.931,1.278c.108.315.16.649.264.966s.136.526-.291.634c-.4.1-.476-.106-.532-.39a3.143,3.143,0,0,0-.843-1.774c-.092-.088-.248-.214-.083-.367m1.67-1.238c.084.064.151.109.21.161A5.128,5.128,0,0,1,19.234,25.1c.055.247-.18.24-.329.281-.182.05-.381.106-.463-.154a3.682,3.682,0,0,1-.117-.423,3.835,3.835,0,0,0-.987-2.057c-.1-.1-.306-.229-.131-.415a3.458,3.458,0,0,1,.452-.35m-1.187-1.45a2.757,2.757,0,0,1,.685.9,1.012,1.012,0,0,1-.151.187c-.479.364-.962.722-1.444,1.082-.145.108-.258.056-.386-.049-.7-.573-.7-.842.01-1.382.232-.174.458-.36.7-.514.178-.113.34-.407.583-.223m-6.791-9.9q.878-1.262,1.771-2.512a2.839,2.839,0,0,1,3.222-1.055,2.774,2.774,0,0,1,1.957,2.7c-.029.843-.19,1.681-.292,2.521a3.4,3.4,0,0,0-1.9-1.216c-1.222-.456-1.219-.463-.457-1.483.075-.1.151-.2.223-.3.132-.188.2-.391-.025-.546a.342.342,0,0,0-.492.125c-.415.551-.834,1.1-1.231,1.663-.227.322-.024.491.272.605q1.023.391,2.044.793c.742.293,1.045.838.812,1.449a1.108,1.108,0,0,1-1.566.549q-1.876-.708-3.749-1.429c-.961-.373-1.166-1.029-.586-1.862M.662,14.245c-.04-.476.1-.657.614-.641,1.314.038,2.63.012,3.945.012,1.294,0,2.589.031,3.882-.014.563-.019.7.178.594.676a4.864,4.864,0,0,0-.057.5C9.5,16.09,9.5,16.09,8.14,16.09c-2.3,0-4.593-.014-6.889.011-.479.005-.629-.143-.589-.6a7.361,7.361,0,0,0,0-1.251m.522,2.485c1.337.032,2.676.011,4.014.011s2.676.01,4.014-.007c.367,0,.569.071.48.483-.066.306.244.778-.453.772q-4.046-.035-8.091,0c-.538,0-.469-.311-.485-.65-.019-.385.025-.621.521-.609M.67,22.741c0-1.19.013-2.382-.007-3.572-.006-.388.079-.567.515-.553.918.03,1.838.016,2.758.005.294,0,.482.054.474.4-.038,1.586.094,3.176-.077,4.759a3.613,3.613,0,0,1-3.241,3.08c-.421.034-.427-.186-.425-.488.006-1.212,0-2.424,0-3.636m.376,4.777a4.243,4.243,0,0,0,4.012-4.641c0-1.255.015-2.511-.008-3.767-.008-.394.119-.493.5-.487,1.339.022,2.678.018,4.018,0,.515-.005.666.251.608.71-.173,1.348-.355,2.695-.514,4.044a2.055,2.055,0,0,1-.456,1.069c-.982,1.25-1.917,2.538-2.92,3.771a2.193,2.193,0,0,0-.493,2.535c-1.7.317-3.481-.41-5.12.694,0-1.263,0-2.446,0-3.628,0-.264.172-.276.374-.3m23.708,7.233a1.831,1.831,0,0,1-.848.185q-10.727,0-21.453-.005a1.7,1.7,0,1,1-.009-3.394c3.576-.009,7.151,0,10.727,0,3.6,0,7.192-.005,10.789,0a1.672,1.672,0,0,1,1.689,1.315,1.71,1.71,0,0,1-.9,1.9" fill="#fff" stroke="#fff" stroke-width="1"/>
      <path id="Path_2339" data-name="Path 2339" d="M14.247,0a2.911,2.911,0,0,0-2.923,2.968A2.927,2.927,0,0,0,14.29,5.9a3,3,0,0,0,2.949-2.979A2.949,2.949,0,0,0,14.247,0m0,5.218a2.275,2.275,0,1,1,.03-4.549A2.251,2.251,0,0,1,16.529,2.96a2.243,2.243,0,0,1-2.278,2.258" fill="#fff" stroke="#fff" stroke-width="1"/>
      <path id="Path_2340" data-name="Path 2340" d="M24.114,33.32a.537.537,0,0,1-.6.514.485.485,0,0,1-.5-.578.5.5,0,0,1,.576-.515.559.559,0,0,1,.528.579" fill="#fff" stroke="#fff" stroke-width="1"/>
      <path id="Path_2341" data-name="Path 2341" d="M2.763,32.715c.318.07.547.237.547.581a.5.5,0,0,1-.556.535.5.5,0,0,1-.548-.544.582.582,0,0,1,.557-.572" fill="#fff" stroke="#fff" stroke-width="1"/>
    </g>
  </g>
</svg>
